M48
; DRILL file {KiCad (5.1.2-1)-1} date 2020 June 07, Sunday 21:53:57
; FORMAT={-:-/ absolute / metric / decimal}
; #@! TF.CreationDate,2020-06-07T21:53:57+02:00
; #@! TF.GenerationSoftware,Kicad,Pcbnew,(5.1.2-1)-1
; #@! TF.FileFunction,Plated,1,2,PTH
FMAT,2
METRIC
T1C0.400
T2C0.600
T3C0.650
T4C1.000
T5C3.200
%
G90
G05
T1
X23.2Y-57.56
X24.2Y-54.66
X26.6Y-44.61
X26.85Y-42.86
X27.1Y-57.86
X28.3Y-42.66
X28.3Y-43.91
X28.46Y-48.52
X29.3Y-54.035
X29.35Y-65.11
X30.075Y-51.46
X31.1Y-46.36
X32.59Y-43.8
X34.1Y-53.86
X34.1Y-55.11
X34.8Y-56.56
X35.6Y-61.61
X35.85Y-63.86
X37.768Y-62.832
X37.89Y-68.12
X38.271Y-61.207
X39.14Y-61.95
X39.61Y-46.51
X40.35Y-63.61
X41.1Y-57.36
X41.14Y-67.14
X41.72Y-65.09
X44.02Y-65.87
X44.97Y-46.11
X49.6Y-48.11
X51.6Y-65.86
X51.6Y-67.86
X51.79Y-46.11
T3
X25.7Y-55.82
X25.7Y-57.09
X25.7Y-58.36
T4
X36.6Y-38.11
X39.14Y-38.11
X41.68Y-38.11
X57.5Y-41.54
X57.5Y-44.08
X57.5Y-46.62
X57.5Y-49.16
X57.5Y-51.7
X57.5Y-54.24
X57.5Y-56.78
X57.5Y-59.32
T5
X19.1Y-39.36
X57.1Y-66.36
T2
G00X17.8Y-48.18
M15
G01X17.2Y-48.18
M16
G05
G00X17.8Y-56.82
M15
G01X17.2Y-56.82
M16
G05
G00X21.98Y-48.18
M15
G01X21.38Y-48.18
M16
G05
G00X21.98Y-56.82
M15
G01X21.38Y-56.82
M16
G05
T0
M30
