G04 #@! TF.GenerationSoftware,KiCad,Pcbnew,(5.1.2-1)-1*
G04 #@! TF.CreationDate,2020-06-07T21:53:54+02:00*
G04 #@! TF.ProjectId,TeensyTest,5465656e-7379-4546-9573-742e6b696361,rev?*
G04 #@! TF.SameCoordinates,Original*
G04 #@! TF.FileFunction,Paste,Top*
G04 #@! TF.FilePolarity,Positive*
%FSLAX46Y46*%
G04 Gerber Fmt 4.6, Leading zero omitted, Abs format (unit mm)*
G04 Created by KiCad (PCBNEW (5.1.2-1)-1) date 2020-06-07 21:53:54*
%MOMM*%
%LPD*%
G04 APERTURE LIST*
%ADD10R,1.450000X0.300000*%
%ADD11R,0.228600X1.346200*%
%ADD12R,1.346200X0.228600*%
%ADD13C,0.100000*%
%ADD14C,0.875000*%
%ADD15R,1.800000X1.200000*%
%ADD16R,0.730000X0.730000*%
%ADD17O,0.300000X0.750000*%
%ADD18O,0.750000X0.300000*%
%ADD19R,1.500000X2.000000*%
%ADD20R,3.800000X2.000000*%
%ADD21R,3.200000X1.000000*%
%ADD22C,0.975000*%
G04 APERTURE END LIST*
D10*
X22600000Y-49100000D03*
X22600000Y-49900000D03*
X22600000Y-50750000D03*
X22600000Y-49400000D03*
X22600000Y-50200000D03*
X22600000Y-51250000D03*
X22600000Y-54250000D03*
X22600000Y-55100000D03*
X22600000Y-55900000D03*
X22600000Y-55600000D03*
X22600000Y-54800000D03*
X22600000Y-53750000D03*
X22600000Y-53250000D03*
X22600000Y-52750000D03*
X22600000Y-52250000D03*
X22600000Y-51750000D03*
D11*
X34750000Y-48323100D03*
X35249999Y-48323100D03*
X35750000Y-48323100D03*
X36249999Y-48323100D03*
X36750001Y-48323100D03*
X37250000Y-48323100D03*
X37749999Y-48323100D03*
X38250000Y-48323100D03*
X38750000Y-48323100D03*
X39250001Y-48323100D03*
X39750000Y-48323100D03*
X40249999Y-48323100D03*
X40750001Y-48323100D03*
X41250000Y-48323100D03*
X41750001Y-48323100D03*
X42250000Y-48323100D03*
D12*
X44176900Y-50250000D03*
X44176900Y-50749999D03*
X44176900Y-51250000D03*
X44176900Y-51749999D03*
X44176900Y-52250001D03*
X44176900Y-52750000D03*
X44176900Y-53249999D03*
X44176900Y-53750000D03*
X44176900Y-54250000D03*
X44176900Y-54750001D03*
X44176900Y-55250000D03*
X44176900Y-55749999D03*
X44176900Y-56250001D03*
X44176900Y-56750000D03*
X44176900Y-57250001D03*
X44176900Y-57750000D03*
D11*
X42250000Y-59676900D03*
X41750001Y-59676900D03*
X41250000Y-59676900D03*
X40750001Y-59676900D03*
X40249999Y-59676900D03*
X39750000Y-59676900D03*
X39250001Y-59676900D03*
X38750000Y-59676900D03*
X38250000Y-59676900D03*
X37749999Y-59676900D03*
X37250000Y-59676900D03*
X36750001Y-59676900D03*
X36249999Y-59676900D03*
X35750000Y-59676900D03*
X35249999Y-59676900D03*
X34750000Y-59676900D03*
D12*
X32823100Y-57750000D03*
X32823100Y-57250001D03*
X32823100Y-56750000D03*
X32823100Y-56250001D03*
X32823100Y-55749999D03*
X32823100Y-55250000D03*
X32823100Y-54750001D03*
X32823100Y-54250000D03*
X32823100Y-53750000D03*
X32823100Y-53249999D03*
X32823100Y-52750000D03*
X32823100Y-52250001D03*
X32823100Y-51749999D03*
X32823100Y-51250000D03*
X32823100Y-50749999D03*
X32823100Y-50250000D03*
D13*
G36*
X53907691Y-62031053D02*
G01*
X53928926Y-62034203D01*
X53949750Y-62039419D01*
X53969962Y-62046651D01*
X53989368Y-62055830D01*
X54007781Y-62066866D01*
X54025024Y-62079654D01*
X54040930Y-62094070D01*
X54055346Y-62109976D01*
X54068134Y-62127219D01*
X54079170Y-62145632D01*
X54088349Y-62165038D01*
X54095581Y-62185250D01*
X54100797Y-62206074D01*
X54103947Y-62227309D01*
X54105000Y-62248750D01*
X54105000Y-62686250D01*
X54103947Y-62707691D01*
X54100797Y-62728926D01*
X54095581Y-62749750D01*
X54088349Y-62769962D01*
X54079170Y-62789368D01*
X54068134Y-62807781D01*
X54055346Y-62825024D01*
X54040930Y-62840930D01*
X54025024Y-62855346D01*
X54007781Y-62868134D01*
X53989368Y-62879170D01*
X53969962Y-62888349D01*
X53949750Y-62895581D01*
X53928926Y-62900797D01*
X53907691Y-62903947D01*
X53886250Y-62905000D01*
X53373750Y-62905000D01*
X53352309Y-62903947D01*
X53331074Y-62900797D01*
X53310250Y-62895581D01*
X53290038Y-62888349D01*
X53270632Y-62879170D01*
X53252219Y-62868134D01*
X53234976Y-62855346D01*
X53219070Y-62840930D01*
X53204654Y-62825024D01*
X53191866Y-62807781D01*
X53180830Y-62789368D01*
X53171651Y-62769962D01*
X53164419Y-62749750D01*
X53159203Y-62728926D01*
X53156053Y-62707691D01*
X53155000Y-62686250D01*
X53155000Y-62248750D01*
X53156053Y-62227309D01*
X53159203Y-62206074D01*
X53164419Y-62185250D01*
X53171651Y-62165038D01*
X53180830Y-62145632D01*
X53191866Y-62127219D01*
X53204654Y-62109976D01*
X53219070Y-62094070D01*
X53234976Y-62079654D01*
X53252219Y-62066866D01*
X53270632Y-62055830D01*
X53290038Y-62046651D01*
X53310250Y-62039419D01*
X53331074Y-62034203D01*
X53352309Y-62031053D01*
X53373750Y-62030000D01*
X53886250Y-62030000D01*
X53907691Y-62031053D01*
X53907691Y-62031053D01*
G37*
D14*
X53630000Y-62467500D03*
D13*
G36*
X53907691Y-60456053D02*
G01*
X53928926Y-60459203D01*
X53949750Y-60464419D01*
X53969962Y-60471651D01*
X53989368Y-60480830D01*
X54007781Y-60491866D01*
X54025024Y-60504654D01*
X54040930Y-60519070D01*
X54055346Y-60534976D01*
X54068134Y-60552219D01*
X54079170Y-60570632D01*
X54088349Y-60590038D01*
X54095581Y-60610250D01*
X54100797Y-60631074D01*
X54103947Y-60652309D01*
X54105000Y-60673750D01*
X54105000Y-61111250D01*
X54103947Y-61132691D01*
X54100797Y-61153926D01*
X54095581Y-61174750D01*
X54088349Y-61194962D01*
X54079170Y-61214368D01*
X54068134Y-61232781D01*
X54055346Y-61250024D01*
X54040930Y-61265930D01*
X54025024Y-61280346D01*
X54007781Y-61293134D01*
X53989368Y-61304170D01*
X53969962Y-61313349D01*
X53949750Y-61320581D01*
X53928926Y-61325797D01*
X53907691Y-61328947D01*
X53886250Y-61330000D01*
X53373750Y-61330000D01*
X53352309Y-61328947D01*
X53331074Y-61325797D01*
X53310250Y-61320581D01*
X53290038Y-61313349D01*
X53270632Y-61304170D01*
X53252219Y-61293134D01*
X53234976Y-61280346D01*
X53219070Y-61265930D01*
X53204654Y-61250024D01*
X53191866Y-61232781D01*
X53180830Y-61214368D01*
X53171651Y-61194962D01*
X53164419Y-61174750D01*
X53159203Y-61153926D01*
X53156053Y-61132691D01*
X53155000Y-61111250D01*
X53155000Y-60673750D01*
X53156053Y-60652309D01*
X53159203Y-60631074D01*
X53164419Y-60610250D01*
X53171651Y-60590038D01*
X53180830Y-60570632D01*
X53191866Y-60552219D01*
X53204654Y-60534976D01*
X53219070Y-60519070D01*
X53234976Y-60504654D01*
X53252219Y-60491866D01*
X53270632Y-60480830D01*
X53290038Y-60471651D01*
X53310250Y-60464419D01*
X53331074Y-60459203D01*
X53352309Y-60456053D01*
X53373750Y-60455000D01*
X53886250Y-60455000D01*
X53907691Y-60456053D01*
X53907691Y-60456053D01*
G37*
D14*
X53630000Y-60892500D03*
D13*
G36*
X48827691Y-65066053D02*
G01*
X48848926Y-65069203D01*
X48869750Y-65074419D01*
X48889962Y-65081651D01*
X48909368Y-65090830D01*
X48927781Y-65101866D01*
X48945024Y-65114654D01*
X48960930Y-65129070D01*
X48975346Y-65144976D01*
X48988134Y-65162219D01*
X48999170Y-65180632D01*
X49008349Y-65200038D01*
X49015581Y-65220250D01*
X49020797Y-65241074D01*
X49023947Y-65262309D01*
X49025000Y-65283750D01*
X49025000Y-65796250D01*
X49023947Y-65817691D01*
X49020797Y-65838926D01*
X49015581Y-65859750D01*
X49008349Y-65879962D01*
X48999170Y-65899368D01*
X48988134Y-65917781D01*
X48975346Y-65935024D01*
X48960930Y-65950930D01*
X48945024Y-65965346D01*
X48927781Y-65978134D01*
X48909368Y-65989170D01*
X48889962Y-65998349D01*
X48869750Y-66005581D01*
X48848926Y-66010797D01*
X48827691Y-66013947D01*
X48806250Y-66015000D01*
X48368750Y-66015000D01*
X48347309Y-66013947D01*
X48326074Y-66010797D01*
X48305250Y-66005581D01*
X48285038Y-65998349D01*
X48265632Y-65989170D01*
X48247219Y-65978134D01*
X48229976Y-65965346D01*
X48214070Y-65950930D01*
X48199654Y-65935024D01*
X48186866Y-65917781D01*
X48175830Y-65899368D01*
X48166651Y-65879962D01*
X48159419Y-65859750D01*
X48154203Y-65838926D01*
X48151053Y-65817691D01*
X48150000Y-65796250D01*
X48150000Y-65283750D01*
X48151053Y-65262309D01*
X48154203Y-65241074D01*
X48159419Y-65220250D01*
X48166651Y-65200038D01*
X48175830Y-65180632D01*
X48186866Y-65162219D01*
X48199654Y-65144976D01*
X48214070Y-65129070D01*
X48229976Y-65114654D01*
X48247219Y-65101866D01*
X48265632Y-65090830D01*
X48285038Y-65081651D01*
X48305250Y-65074419D01*
X48326074Y-65069203D01*
X48347309Y-65066053D01*
X48368750Y-65065000D01*
X48806250Y-65065000D01*
X48827691Y-65066053D01*
X48827691Y-65066053D01*
G37*
D14*
X48587500Y-65540000D03*
D13*
G36*
X47252691Y-65066053D02*
G01*
X47273926Y-65069203D01*
X47294750Y-65074419D01*
X47314962Y-65081651D01*
X47334368Y-65090830D01*
X47352781Y-65101866D01*
X47370024Y-65114654D01*
X47385930Y-65129070D01*
X47400346Y-65144976D01*
X47413134Y-65162219D01*
X47424170Y-65180632D01*
X47433349Y-65200038D01*
X47440581Y-65220250D01*
X47445797Y-65241074D01*
X47448947Y-65262309D01*
X47450000Y-65283750D01*
X47450000Y-65796250D01*
X47448947Y-65817691D01*
X47445797Y-65838926D01*
X47440581Y-65859750D01*
X47433349Y-65879962D01*
X47424170Y-65899368D01*
X47413134Y-65917781D01*
X47400346Y-65935024D01*
X47385930Y-65950930D01*
X47370024Y-65965346D01*
X47352781Y-65978134D01*
X47334368Y-65989170D01*
X47314962Y-65998349D01*
X47294750Y-66005581D01*
X47273926Y-66010797D01*
X47252691Y-66013947D01*
X47231250Y-66015000D01*
X46793750Y-66015000D01*
X46772309Y-66013947D01*
X46751074Y-66010797D01*
X46730250Y-66005581D01*
X46710038Y-65998349D01*
X46690632Y-65989170D01*
X46672219Y-65978134D01*
X46654976Y-65965346D01*
X46639070Y-65950930D01*
X46624654Y-65935024D01*
X46611866Y-65917781D01*
X46600830Y-65899368D01*
X46591651Y-65879962D01*
X46584419Y-65859750D01*
X46579203Y-65838926D01*
X46576053Y-65817691D01*
X46575000Y-65796250D01*
X46575000Y-65283750D01*
X46576053Y-65262309D01*
X46579203Y-65241074D01*
X46584419Y-65220250D01*
X46591651Y-65200038D01*
X46600830Y-65180632D01*
X46611866Y-65162219D01*
X46624654Y-65144976D01*
X46639070Y-65129070D01*
X46654976Y-65114654D01*
X46672219Y-65101866D01*
X46690632Y-65090830D01*
X46710038Y-65081651D01*
X46730250Y-65074419D01*
X46751074Y-65069203D01*
X46772309Y-65066053D01*
X46793750Y-65065000D01*
X47231250Y-65065000D01*
X47252691Y-65066053D01*
X47252691Y-65066053D01*
G37*
D14*
X47012500Y-65540000D03*
D15*
X46990000Y-60880000D03*
X50990000Y-60880000D03*
X50990000Y-63280000D03*
X46990000Y-63280000D03*
D16*
X39100000Y-66070000D03*
X38200000Y-66070000D03*
X38200000Y-65170000D03*
X39100000Y-65170000D03*
D17*
X39400000Y-67095000D03*
X38900000Y-67095000D03*
X38400000Y-67095000D03*
X37900000Y-67095000D03*
D18*
X37175000Y-66370000D03*
X37175000Y-65870000D03*
X37175000Y-65370000D03*
X37175000Y-64870000D03*
D17*
X37900000Y-64145000D03*
X38400000Y-64145000D03*
X38900000Y-64145000D03*
X39400000Y-64145000D03*
D18*
X40125000Y-64870000D03*
X40125000Y-65370000D03*
X40125000Y-65870000D03*
X40125000Y-66370000D03*
D19*
X30600000Y-40080000D03*
X26000000Y-40080000D03*
X28300000Y-40080000D03*
D20*
X28300000Y-46380000D03*
D21*
X19950000Y-63610000D03*
X26750000Y-63610000D03*
X26750000Y-67610000D03*
X19950000Y-67610000D03*
X45430000Y-40840000D03*
X52230000Y-40840000D03*
X52230000Y-44840000D03*
X45430000Y-44840000D03*
D13*
G36*
X37627691Y-40636053D02*
G01*
X37648926Y-40639203D01*
X37669750Y-40644419D01*
X37689962Y-40651651D01*
X37709368Y-40660830D01*
X37727781Y-40671866D01*
X37745024Y-40684654D01*
X37760930Y-40699070D01*
X37775346Y-40714976D01*
X37788134Y-40732219D01*
X37799170Y-40750632D01*
X37808349Y-40770038D01*
X37815581Y-40790250D01*
X37820797Y-40811074D01*
X37823947Y-40832309D01*
X37825000Y-40853750D01*
X37825000Y-41291250D01*
X37823947Y-41312691D01*
X37820797Y-41333926D01*
X37815581Y-41354750D01*
X37808349Y-41374962D01*
X37799170Y-41394368D01*
X37788134Y-41412781D01*
X37775346Y-41430024D01*
X37760930Y-41445930D01*
X37745024Y-41460346D01*
X37727781Y-41473134D01*
X37709368Y-41484170D01*
X37689962Y-41493349D01*
X37669750Y-41500581D01*
X37648926Y-41505797D01*
X37627691Y-41508947D01*
X37606250Y-41510000D01*
X37093750Y-41510000D01*
X37072309Y-41508947D01*
X37051074Y-41505797D01*
X37030250Y-41500581D01*
X37010038Y-41493349D01*
X36990632Y-41484170D01*
X36972219Y-41473134D01*
X36954976Y-41460346D01*
X36939070Y-41445930D01*
X36924654Y-41430024D01*
X36911866Y-41412781D01*
X36900830Y-41394368D01*
X36891651Y-41374962D01*
X36884419Y-41354750D01*
X36879203Y-41333926D01*
X36876053Y-41312691D01*
X36875000Y-41291250D01*
X36875000Y-40853750D01*
X36876053Y-40832309D01*
X36879203Y-40811074D01*
X36884419Y-40790250D01*
X36891651Y-40770038D01*
X36900830Y-40750632D01*
X36911866Y-40732219D01*
X36924654Y-40714976D01*
X36939070Y-40699070D01*
X36954976Y-40684654D01*
X36972219Y-40671866D01*
X36990632Y-40660830D01*
X37010038Y-40651651D01*
X37030250Y-40644419D01*
X37051074Y-40639203D01*
X37072309Y-40636053D01*
X37093750Y-40635000D01*
X37606250Y-40635000D01*
X37627691Y-40636053D01*
X37627691Y-40636053D01*
G37*
D14*
X37350000Y-41072500D03*
D13*
G36*
X37627691Y-42211053D02*
G01*
X37648926Y-42214203D01*
X37669750Y-42219419D01*
X37689962Y-42226651D01*
X37709368Y-42235830D01*
X37727781Y-42246866D01*
X37745024Y-42259654D01*
X37760930Y-42274070D01*
X37775346Y-42289976D01*
X37788134Y-42307219D01*
X37799170Y-42325632D01*
X37808349Y-42345038D01*
X37815581Y-42365250D01*
X37820797Y-42386074D01*
X37823947Y-42407309D01*
X37825000Y-42428750D01*
X37825000Y-42866250D01*
X37823947Y-42887691D01*
X37820797Y-42908926D01*
X37815581Y-42929750D01*
X37808349Y-42949962D01*
X37799170Y-42969368D01*
X37788134Y-42987781D01*
X37775346Y-43005024D01*
X37760930Y-43020930D01*
X37745024Y-43035346D01*
X37727781Y-43048134D01*
X37709368Y-43059170D01*
X37689962Y-43068349D01*
X37669750Y-43075581D01*
X37648926Y-43080797D01*
X37627691Y-43083947D01*
X37606250Y-43085000D01*
X37093750Y-43085000D01*
X37072309Y-43083947D01*
X37051074Y-43080797D01*
X37030250Y-43075581D01*
X37010038Y-43068349D01*
X36990632Y-43059170D01*
X36972219Y-43048134D01*
X36954976Y-43035346D01*
X36939070Y-43020930D01*
X36924654Y-43005024D01*
X36911866Y-42987781D01*
X36900830Y-42969368D01*
X36891651Y-42949962D01*
X36884419Y-42929750D01*
X36879203Y-42908926D01*
X36876053Y-42887691D01*
X36875000Y-42866250D01*
X36875000Y-42428750D01*
X36876053Y-42407309D01*
X36879203Y-42386074D01*
X36884419Y-42365250D01*
X36891651Y-42345038D01*
X36900830Y-42325632D01*
X36911866Y-42307219D01*
X36924654Y-42289976D01*
X36939070Y-42274070D01*
X36954976Y-42259654D01*
X36972219Y-42246866D01*
X36990632Y-42235830D01*
X37010038Y-42226651D01*
X37030250Y-42219419D01*
X37051074Y-42214203D01*
X37072309Y-42211053D01*
X37093750Y-42210000D01*
X37606250Y-42210000D01*
X37627691Y-42211053D01*
X37627691Y-42211053D01*
G37*
D14*
X37350000Y-42647500D03*
D13*
G36*
X18562691Y-59316053D02*
G01*
X18583926Y-59319203D01*
X18604750Y-59324419D01*
X18624962Y-59331651D01*
X18644368Y-59340830D01*
X18662781Y-59351866D01*
X18680024Y-59364654D01*
X18695930Y-59379070D01*
X18710346Y-59394976D01*
X18723134Y-59412219D01*
X18734170Y-59430632D01*
X18743349Y-59450038D01*
X18750581Y-59470250D01*
X18755797Y-59491074D01*
X18758947Y-59512309D01*
X18760000Y-59533750D01*
X18760000Y-60046250D01*
X18758947Y-60067691D01*
X18755797Y-60088926D01*
X18750581Y-60109750D01*
X18743349Y-60129962D01*
X18734170Y-60149368D01*
X18723134Y-60167781D01*
X18710346Y-60185024D01*
X18695930Y-60200930D01*
X18680024Y-60215346D01*
X18662781Y-60228134D01*
X18644368Y-60239170D01*
X18624962Y-60248349D01*
X18604750Y-60255581D01*
X18583926Y-60260797D01*
X18562691Y-60263947D01*
X18541250Y-60265000D01*
X18103750Y-60265000D01*
X18082309Y-60263947D01*
X18061074Y-60260797D01*
X18040250Y-60255581D01*
X18020038Y-60248349D01*
X18000632Y-60239170D01*
X17982219Y-60228134D01*
X17964976Y-60215346D01*
X17949070Y-60200930D01*
X17934654Y-60185024D01*
X17921866Y-60167781D01*
X17910830Y-60149368D01*
X17901651Y-60129962D01*
X17894419Y-60109750D01*
X17889203Y-60088926D01*
X17886053Y-60067691D01*
X17885000Y-60046250D01*
X17885000Y-59533750D01*
X17886053Y-59512309D01*
X17889203Y-59491074D01*
X17894419Y-59470250D01*
X17901651Y-59450038D01*
X17910830Y-59430632D01*
X17921866Y-59412219D01*
X17934654Y-59394976D01*
X17949070Y-59379070D01*
X17964976Y-59364654D01*
X17982219Y-59351866D01*
X18000632Y-59340830D01*
X18020038Y-59331651D01*
X18040250Y-59324419D01*
X18061074Y-59319203D01*
X18082309Y-59316053D01*
X18103750Y-59315000D01*
X18541250Y-59315000D01*
X18562691Y-59316053D01*
X18562691Y-59316053D01*
G37*
D14*
X18322500Y-59790000D03*
D13*
G36*
X20137691Y-59316053D02*
G01*
X20158926Y-59319203D01*
X20179750Y-59324419D01*
X20199962Y-59331651D01*
X20219368Y-59340830D01*
X20237781Y-59351866D01*
X20255024Y-59364654D01*
X20270930Y-59379070D01*
X20285346Y-59394976D01*
X20298134Y-59412219D01*
X20309170Y-59430632D01*
X20318349Y-59450038D01*
X20325581Y-59470250D01*
X20330797Y-59491074D01*
X20333947Y-59512309D01*
X20335000Y-59533750D01*
X20335000Y-60046250D01*
X20333947Y-60067691D01*
X20330797Y-60088926D01*
X20325581Y-60109750D01*
X20318349Y-60129962D01*
X20309170Y-60149368D01*
X20298134Y-60167781D01*
X20285346Y-60185024D01*
X20270930Y-60200930D01*
X20255024Y-60215346D01*
X20237781Y-60228134D01*
X20219368Y-60239170D01*
X20199962Y-60248349D01*
X20179750Y-60255581D01*
X20158926Y-60260797D01*
X20137691Y-60263947D01*
X20116250Y-60265000D01*
X19678750Y-60265000D01*
X19657309Y-60263947D01*
X19636074Y-60260797D01*
X19615250Y-60255581D01*
X19595038Y-60248349D01*
X19575632Y-60239170D01*
X19557219Y-60228134D01*
X19539976Y-60215346D01*
X19524070Y-60200930D01*
X19509654Y-60185024D01*
X19496866Y-60167781D01*
X19485830Y-60149368D01*
X19476651Y-60129962D01*
X19469419Y-60109750D01*
X19464203Y-60088926D01*
X19461053Y-60067691D01*
X19460000Y-60046250D01*
X19460000Y-59533750D01*
X19461053Y-59512309D01*
X19464203Y-59491074D01*
X19469419Y-59470250D01*
X19476651Y-59450038D01*
X19485830Y-59430632D01*
X19496866Y-59412219D01*
X19509654Y-59394976D01*
X19524070Y-59379070D01*
X19539976Y-59364654D01*
X19557219Y-59351866D01*
X19575632Y-59340830D01*
X19595038Y-59331651D01*
X19615250Y-59324419D01*
X19636074Y-59319203D01*
X19657309Y-59316053D01*
X19678750Y-59315000D01*
X20116250Y-59315000D01*
X20137691Y-59316053D01*
X20137691Y-59316053D01*
G37*
D14*
X19897500Y-59790000D03*
D13*
G36*
X28552691Y-56886053D02*
G01*
X28573926Y-56889203D01*
X28594750Y-56894419D01*
X28614962Y-56901651D01*
X28634368Y-56910830D01*
X28652781Y-56921866D01*
X28670024Y-56934654D01*
X28685930Y-56949070D01*
X28700346Y-56964976D01*
X28713134Y-56982219D01*
X28724170Y-57000632D01*
X28733349Y-57020038D01*
X28740581Y-57040250D01*
X28745797Y-57061074D01*
X28748947Y-57082309D01*
X28750000Y-57103750D01*
X28750000Y-57616250D01*
X28748947Y-57637691D01*
X28745797Y-57658926D01*
X28740581Y-57679750D01*
X28733349Y-57699962D01*
X28724170Y-57719368D01*
X28713134Y-57737781D01*
X28700346Y-57755024D01*
X28685930Y-57770930D01*
X28670024Y-57785346D01*
X28652781Y-57798134D01*
X28634368Y-57809170D01*
X28614962Y-57818349D01*
X28594750Y-57825581D01*
X28573926Y-57830797D01*
X28552691Y-57833947D01*
X28531250Y-57835000D01*
X28093750Y-57835000D01*
X28072309Y-57833947D01*
X28051074Y-57830797D01*
X28030250Y-57825581D01*
X28010038Y-57818349D01*
X27990632Y-57809170D01*
X27972219Y-57798134D01*
X27954976Y-57785346D01*
X27939070Y-57770930D01*
X27924654Y-57755024D01*
X27911866Y-57737781D01*
X27900830Y-57719368D01*
X27891651Y-57699962D01*
X27884419Y-57679750D01*
X27879203Y-57658926D01*
X27876053Y-57637691D01*
X27875000Y-57616250D01*
X27875000Y-57103750D01*
X27876053Y-57082309D01*
X27879203Y-57061074D01*
X27884419Y-57040250D01*
X27891651Y-57020038D01*
X27900830Y-57000632D01*
X27911866Y-56982219D01*
X27924654Y-56964976D01*
X27939070Y-56949070D01*
X27954976Y-56934654D01*
X27972219Y-56921866D01*
X27990632Y-56910830D01*
X28010038Y-56901651D01*
X28030250Y-56894419D01*
X28051074Y-56889203D01*
X28072309Y-56886053D01*
X28093750Y-56885000D01*
X28531250Y-56885000D01*
X28552691Y-56886053D01*
X28552691Y-56886053D01*
G37*
D14*
X28312500Y-57360000D03*
D13*
G36*
X30127691Y-56886053D02*
G01*
X30148926Y-56889203D01*
X30169750Y-56894419D01*
X30189962Y-56901651D01*
X30209368Y-56910830D01*
X30227781Y-56921866D01*
X30245024Y-56934654D01*
X30260930Y-56949070D01*
X30275346Y-56964976D01*
X30288134Y-56982219D01*
X30299170Y-57000632D01*
X30308349Y-57020038D01*
X30315581Y-57040250D01*
X30320797Y-57061074D01*
X30323947Y-57082309D01*
X30325000Y-57103750D01*
X30325000Y-57616250D01*
X30323947Y-57637691D01*
X30320797Y-57658926D01*
X30315581Y-57679750D01*
X30308349Y-57699962D01*
X30299170Y-57719368D01*
X30288134Y-57737781D01*
X30275346Y-57755024D01*
X30260930Y-57770930D01*
X30245024Y-57785346D01*
X30227781Y-57798134D01*
X30209368Y-57809170D01*
X30189962Y-57818349D01*
X30169750Y-57825581D01*
X30148926Y-57830797D01*
X30127691Y-57833947D01*
X30106250Y-57835000D01*
X29668750Y-57835000D01*
X29647309Y-57833947D01*
X29626074Y-57830797D01*
X29605250Y-57825581D01*
X29585038Y-57818349D01*
X29565632Y-57809170D01*
X29547219Y-57798134D01*
X29529976Y-57785346D01*
X29514070Y-57770930D01*
X29499654Y-57755024D01*
X29486866Y-57737781D01*
X29475830Y-57719368D01*
X29466651Y-57699962D01*
X29459419Y-57679750D01*
X29454203Y-57658926D01*
X29451053Y-57637691D01*
X29450000Y-57616250D01*
X29450000Y-57103750D01*
X29451053Y-57082309D01*
X29454203Y-57061074D01*
X29459419Y-57040250D01*
X29466651Y-57020038D01*
X29475830Y-57000632D01*
X29486866Y-56982219D01*
X29499654Y-56964976D01*
X29514070Y-56949070D01*
X29529976Y-56934654D01*
X29547219Y-56921866D01*
X29565632Y-56910830D01*
X29585038Y-56901651D01*
X29605250Y-56894419D01*
X29626074Y-56889203D01*
X29647309Y-56886053D01*
X29668750Y-56885000D01*
X30106250Y-56885000D01*
X30127691Y-56886053D01*
X30127691Y-56886053D01*
G37*
D14*
X29887500Y-57360000D03*
D13*
G36*
X25777691Y-51776053D02*
G01*
X25798926Y-51779203D01*
X25819750Y-51784419D01*
X25839962Y-51791651D01*
X25859368Y-51800830D01*
X25877781Y-51811866D01*
X25895024Y-51824654D01*
X25910930Y-51839070D01*
X25925346Y-51854976D01*
X25938134Y-51872219D01*
X25949170Y-51890632D01*
X25958349Y-51910038D01*
X25965581Y-51930250D01*
X25970797Y-51951074D01*
X25973947Y-51972309D01*
X25975000Y-51993750D01*
X25975000Y-52431250D01*
X25973947Y-52452691D01*
X25970797Y-52473926D01*
X25965581Y-52494750D01*
X25958349Y-52514962D01*
X25949170Y-52534368D01*
X25938134Y-52552781D01*
X25925346Y-52570024D01*
X25910930Y-52585930D01*
X25895024Y-52600346D01*
X25877781Y-52613134D01*
X25859368Y-52624170D01*
X25839962Y-52633349D01*
X25819750Y-52640581D01*
X25798926Y-52645797D01*
X25777691Y-52648947D01*
X25756250Y-52650000D01*
X25243750Y-52650000D01*
X25222309Y-52648947D01*
X25201074Y-52645797D01*
X25180250Y-52640581D01*
X25160038Y-52633349D01*
X25140632Y-52624170D01*
X25122219Y-52613134D01*
X25104976Y-52600346D01*
X25089070Y-52585930D01*
X25074654Y-52570024D01*
X25061866Y-52552781D01*
X25050830Y-52534368D01*
X25041651Y-52514962D01*
X25034419Y-52494750D01*
X25029203Y-52473926D01*
X25026053Y-52452691D01*
X25025000Y-52431250D01*
X25025000Y-51993750D01*
X25026053Y-51972309D01*
X25029203Y-51951074D01*
X25034419Y-51930250D01*
X25041651Y-51910038D01*
X25050830Y-51890632D01*
X25061866Y-51872219D01*
X25074654Y-51854976D01*
X25089070Y-51839070D01*
X25104976Y-51824654D01*
X25122219Y-51811866D01*
X25140632Y-51800830D01*
X25160038Y-51791651D01*
X25180250Y-51784419D01*
X25201074Y-51779203D01*
X25222309Y-51776053D01*
X25243750Y-51775000D01*
X25756250Y-51775000D01*
X25777691Y-51776053D01*
X25777691Y-51776053D01*
G37*
D14*
X25500000Y-52212500D03*
D13*
G36*
X25777691Y-53351053D02*
G01*
X25798926Y-53354203D01*
X25819750Y-53359419D01*
X25839962Y-53366651D01*
X25859368Y-53375830D01*
X25877781Y-53386866D01*
X25895024Y-53399654D01*
X25910930Y-53414070D01*
X25925346Y-53429976D01*
X25938134Y-53447219D01*
X25949170Y-53465632D01*
X25958349Y-53485038D01*
X25965581Y-53505250D01*
X25970797Y-53526074D01*
X25973947Y-53547309D01*
X25975000Y-53568750D01*
X25975000Y-54006250D01*
X25973947Y-54027691D01*
X25970797Y-54048926D01*
X25965581Y-54069750D01*
X25958349Y-54089962D01*
X25949170Y-54109368D01*
X25938134Y-54127781D01*
X25925346Y-54145024D01*
X25910930Y-54160930D01*
X25895024Y-54175346D01*
X25877781Y-54188134D01*
X25859368Y-54199170D01*
X25839962Y-54208349D01*
X25819750Y-54215581D01*
X25798926Y-54220797D01*
X25777691Y-54223947D01*
X25756250Y-54225000D01*
X25243750Y-54225000D01*
X25222309Y-54223947D01*
X25201074Y-54220797D01*
X25180250Y-54215581D01*
X25160038Y-54208349D01*
X25140632Y-54199170D01*
X25122219Y-54188134D01*
X25104976Y-54175346D01*
X25089070Y-54160930D01*
X25074654Y-54145024D01*
X25061866Y-54127781D01*
X25050830Y-54109368D01*
X25041651Y-54089962D01*
X25034419Y-54069750D01*
X25029203Y-54048926D01*
X25026053Y-54027691D01*
X25025000Y-54006250D01*
X25025000Y-53568750D01*
X25026053Y-53547309D01*
X25029203Y-53526074D01*
X25034419Y-53505250D01*
X25041651Y-53485038D01*
X25050830Y-53465632D01*
X25061866Y-53447219D01*
X25074654Y-53429976D01*
X25089070Y-53414070D01*
X25104976Y-53399654D01*
X25122219Y-53386866D01*
X25140632Y-53375830D01*
X25160038Y-53366651D01*
X25180250Y-53359419D01*
X25201074Y-53354203D01*
X25222309Y-53351053D01*
X25243750Y-53350000D01*
X25756250Y-53350000D01*
X25777691Y-53351053D01*
X25777691Y-53351053D01*
G37*
D14*
X25500000Y-53787500D03*
D13*
G36*
X27777691Y-50776053D02*
G01*
X27798926Y-50779203D01*
X27819750Y-50784419D01*
X27839962Y-50791651D01*
X27859368Y-50800830D01*
X27877781Y-50811866D01*
X27895024Y-50824654D01*
X27910930Y-50839070D01*
X27925346Y-50854976D01*
X27938134Y-50872219D01*
X27949170Y-50890632D01*
X27958349Y-50910038D01*
X27965581Y-50930250D01*
X27970797Y-50951074D01*
X27973947Y-50972309D01*
X27975000Y-50993750D01*
X27975000Y-51431250D01*
X27973947Y-51452691D01*
X27970797Y-51473926D01*
X27965581Y-51494750D01*
X27958349Y-51514962D01*
X27949170Y-51534368D01*
X27938134Y-51552781D01*
X27925346Y-51570024D01*
X27910930Y-51585930D01*
X27895024Y-51600346D01*
X27877781Y-51613134D01*
X27859368Y-51624170D01*
X27839962Y-51633349D01*
X27819750Y-51640581D01*
X27798926Y-51645797D01*
X27777691Y-51648947D01*
X27756250Y-51650000D01*
X27243750Y-51650000D01*
X27222309Y-51648947D01*
X27201074Y-51645797D01*
X27180250Y-51640581D01*
X27160038Y-51633349D01*
X27140632Y-51624170D01*
X27122219Y-51613134D01*
X27104976Y-51600346D01*
X27089070Y-51585930D01*
X27074654Y-51570024D01*
X27061866Y-51552781D01*
X27050830Y-51534368D01*
X27041651Y-51514962D01*
X27034419Y-51494750D01*
X27029203Y-51473926D01*
X27026053Y-51452691D01*
X27025000Y-51431250D01*
X27025000Y-50993750D01*
X27026053Y-50972309D01*
X27029203Y-50951074D01*
X27034419Y-50930250D01*
X27041651Y-50910038D01*
X27050830Y-50890632D01*
X27061866Y-50872219D01*
X27074654Y-50854976D01*
X27089070Y-50839070D01*
X27104976Y-50824654D01*
X27122219Y-50811866D01*
X27140632Y-50800830D01*
X27160038Y-50791651D01*
X27180250Y-50784419D01*
X27201074Y-50779203D01*
X27222309Y-50776053D01*
X27243750Y-50775000D01*
X27756250Y-50775000D01*
X27777691Y-50776053D01*
X27777691Y-50776053D01*
G37*
D14*
X27500000Y-51212500D03*
D13*
G36*
X27777691Y-52351053D02*
G01*
X27798926Y-52354203D01*
X27819750Y-52359419D01*
X27839962Y-52366651D01*
X27859368Y-52375830D01*
X27877781Y-52386866D01*
X27895024Y-52399654D01*
X27910930Y-52414070D01*
X27925346Y-52429976D01*
X27938134Y-52447219D01*
X27949170Y-52465632D01*
X27958349Y-52485038D01*
X27965581Y-52505250D01*
X27970797Y-52526074D01*
X27973947Y-52547309D01*
X27975000Y-52568750D01*
X27975000Y-53006250D01*
X27973947Y-53027691D01*
X27970797Y-53048926D01*
X27965581Y-53069750D01*
X27958349Y-53089962D01*
X27949170Y-53109368D01*
X27938134Y-53127781D01*
X27925346Y-53145024D01*
X27910930Y-53160930D01*
X27895024Y-53175346D01*
X27877781Y-53188134D01*
X27859368Y-53199170D01*
X27839962Y-53208349D01*
X27819750Y-53215581D01*
X27798926Y-53220797D01*
X27777691Y-53223947D01*
X27756250Y-53225000D01*
X27243750Y-53225000D01*
X27222309Y-53223947D01*
X27201074Y-53220797D01*
X27180250Y-53215581D01*
X27160038Y-53208349D01*
X27140632Y-53199170D01*
X27122219Y-53188134D01*
X27104976Y-53175346D01*
X27089070Y-53160930D01*
X27074654Y-53145024D01*
X27061866Y-53127781D01*
X27050830Y-53109368D01*
X27041651Y-53089962D01*
X27034419Y-53069750D01*
X27029203Y-53048926D01*
X27026053Y-53027691D01*
X27025000Y-53006250D01*
X27025000Y-52568750D01*
X27026053Y-52547309D01*
X27029203Y-52526074D01*
X27034419Y-52505250D01*
X27041651Y-52485038D01*
X27050830Y-52465632D01*
X27061866Y-52447219D01*
X27074654Y-52429976D01*
X27089070Y-52414070D01*
X27104976Y-52399654D01*
X27122219Y-52386866D01*
X27140632Y-52375830D01*
X27160038Y-52366651D01*
X27180250Y-52359419D01*
X27201074Y-52354203D01*
X27222309Y-52351053D01*
X27243750Y-52350000D01*
X27756250Y-52350000D01*
X27777691Y-52351053D01*
X27777691Y-52351053D01*
G37*
D14*
X27500000Y-52787500D03*
D13*
G36*
X23127691Y-58386053D02*
G01*
X23148926Y-58389203D01*
X23169750Y-58394419D01*
X23189962Y-58401651D01*
X23209368Y-58410830D01*
X23227781Y-58421866D01*
X23245024Y-58434654D01*
X23260930Y-58449070D01*
X23275346Y-58464976D01*
X23288134Y-58482219D01*
X23299170Y-58500632D01*
X23308349Y-58520038D01*
X23315581Y-58540250D01*
X23320797Y-58561074D01*
X23323947Y-58582309D01*
X23325000Y-58603750D01*
X23325000Y-59041250D01*
X23323947Y-59062691D01*
X23320797Y-59083926D01*
X23315581Y-59104750D01*
X23308349Y-59124962D01*
X23299170Y-59144368D01*
X23288134Y-59162781D01*
X23275346Y-59180024D01*
X23260930Y-59195930D01*
X23245024Y-59210346D01*
X23227781Y-59223134D01*
X23209368Y-59234170D01*
X23189962Y-59243349D01*
X23169750Y-59250581D01*
X23148926Y-59255797D01*
X23127691Y-59258947D01*
X23106250Y-59260000D01*
X22593750Y-59260000D01*
X22572309Y-59258947D01*
X22551074Y-59255797D01*
X22530250Y-59250581D01*
X22510038Y-59243349D01*
X22490632Y-59234170D01*
X22472219Y-59223134D01*
X22454976Y-59210346D01*
X22439070Y-59195930D01*
X22424654Y-59180024D01*
X22411866Y-59162781D01*
X22400830Y-59144368D01*
X22391651Y-59124962D01*
X22384419Y-59104750D01*
X22379203Y-59083926D01*
X22376053Y-59062691D01*
X22375000Y-59041250D01*
X22375000Y-58603750D01*
X22376053Y-58582309D01*
X22379203Y-58561074D01*
X22384419Y-58540250D01*
X22391651Y-58520038D01*
X22400830Y-58500632D01*
X22411866Y-58482219D01*
X22424654Y-58464976D01*
X22439070Y-58449070D01*
X22454976Y-58434654D01*
X22472219Y-58421866D01*
X22490632Y-58410830D01*
X22510038Y-58401651D01*
X22530250Y-58394419D01*
X22551074Y-58389203D01*
X22572309Y-58386053D01*
X22593750Y-58385000D01*
X23106250Y-58385000D01*
X23127691Y-58386053D01*
X23127691Y-58386053D01*
G37*
D14*
X22850000Y-58822500D03*
D13*
G36*
X23127691Y-59961053D02*
G01*
X23148926Y-59964203D01*
X23169750Y-59969419D01*
X23189962Y-59976651D01*
X23209368Y-59985830D01*
X23227781Y-59996866D01*
X23245024Y-60009654D01*
X23260930Y-60024070D01*
X23275346Y-60039976D01*
X23288134Y-60057219D01*
X23299170Y-60075632D01*
X23308349Y-60095038D01*
X23315581Y-60115250D01*
X23320797Y-60136074D01*
X23323947Y-60157309D01*
X23325000Y-60178750D01*
X23325000Y-60616250D01*
X23323947Y-60637691D01*
X23320797Y-60658926D01*
X23315581Y-60679750D01*
X23308349Y-60699962D01*
X23299170Y-60719368D01*
X23288134Y-60737781D01*
X23275346Y-60755024D01*
X23260930Y-60770930D01*
X23245024Y-60785346D01*
X23227781Y-60798134D01*
X23209368Y-60809170D01*
X23189962Y-60818349D01*
X23169750Y-60825581D01*
X23148926Y-60830797D01*
X23127691Y-60833947D01*
X23106250Y-60835000D01*
X22593750Y-60835000D01*
X22572309Y-60833947D01*
X22551074Y-60830797D01*
X22530250Y-60825581D01*
X22510038Y-60818349D01*
X22490632Y-60809170D01*
X22472219Y-60798134D01*
X22454976Y-60785346D01*
X22439070Y-60770930D01*
X22424654Y-60755024D01*
X22411866Y-60737781D01*
X22400830Y-60719368D01*
X22391651Y-60699962D01*
X22384419Y-60679750D01*
X22379203Y-60658926D01*
X22376053Y-60637691D01*
X22375000Y-60616250D01*
X22375000Y-60178750D01*
X22376053Y-60157309D01*
X22379203Y-60136074D01*
X22384419Y-60115250D01*
X22391651Y-60095038D01*
X22400830Y-60075632D01*
X22411866Y-60057219D01*
X22424654Y-60039976D01*
X22439070Y-60024070D01*
X22454976Y-60009654D01*
X22472219Y-59996866D01*
X22490632Y-59985830D01*
X22510038Y-59976651D01*
X22530250Y-59969419D01*
X22551074Y-59964203D01*
X22572309Y-59961053D01*
X22593750Y-59960000D01*
X23106250Y-59960000D01*
X23127691Y-59961053D01*
X23127691Y-59961053D01*
G37*
D14*
X22850000Y-60397500D03*
D13*
G36*
X25127691Y-49961053D02*
G01*
X25148926Y-49964203D01*
X25169750Y-49969419D01*
X25189962Y-49976651D01*
X25209368Y-49985830D01*
X25227781Y-49996866D01*
X25245024Y-50009654D01*
X25260930Y-50024070D01*
X25275346Y-50039976D01*
X25288134Y-50057219D01*
X25299170Y-50075632D01*
X25308349Y-50095038D01*
X25315581Y-50115250D01*
X25320797Y-50136074D01*
X25323947Y-50157309D01*
X25325000Y-50178750D01*
X25325000Y-50616250D01*
X25323947Y-50637691D01*
X25320797Y-50658926D01*
X25315581Y-50679750D01*
X25308349Y-50699962D01*
X25299170Y-50719368D01*
X25288134Y-50737781D01*
X25275346Y-50755024D01*
X25260930Y-50770930D01*
X25245024Y-50785346D01*
X25227781Y-50798134D01*
X25209368Y-50809170D01*
X25189962Y-50818349D01*
X25169750Y-50825581D01*
X25148926Y-50830797D01*
X25127691Y-50833947D01*
X25106250Y-50835000D01*
X24593750Y-50835000D01*
X24572309Y-50833947D01*
X24551074Y-50830797D01*
X24530250Y-50825581D01*
X24510038Y-50818349D01*
X24490632Y-50809170D01*
X24472219Y-50798134D01*
X24454976Y-50785346D01*
X24439070Y-50770930D01*
X24424654Y-50755024D01*
X24411866Y-50737781D01*
X24400830Y-50719368D01*
X24391651Y-50699962D01*
X24384419Y-50679750D01*
X24379203Y-50658926D01*
X24376053Y-50637691D01*
X24375000Y-50616250D01*
X24375000Y-50178750D01*
X24376053Y-50157309D01*
X24379203Y-50136074D01*
X24384419Y-50115250D01*
X24391651Y-50095038D01*
X24400830Y-50075632D01*
X24411866Y-50057219D01*
X24424654Y-50039976D01*
X24439070Y-50024070D01*
X24454976Y-50009654D01*
X24472219Y-49996866D01*
X24490632Y-49985830D01*
X24510038Y-49976651D01*
X24530250Y-49969419D01*
X24551074Y-49964203D01*
X24572309Y-49961053D01*
X24593750Y-49960000D01*
X25106250Y-49960000D01*
X25127691Y-49961053D01*
X25127691Y-49961053D01*
G37*
D14*
X24850000Y-50397500D03*
D13*
G36*
X25127691Y-48386053D02*
G01*
X25148926Y-48389203D01*
X25169750Y-48394419D01*
X25189962Y-48401651D01*
X25209368Y-48410830D01*
X25227781Y-48421866D01*
X25245024Y-48434654D01*
X25260930Y-48449070D01*
X25275346Y-48464976D01*
X25288134Y-48482219D01*
X25299170Y-48500632D01*
X25308349Y-48520038D01*
X25315581Y-48540250D01*
X25320797Y-48561074D01*
X25323947Y-48582309D01*
X25325000Y-48603750D01*
X25325000Y-49041250D01*
X25323947Y-49062691D01*
X25320797Y-49083926D01*
X25315581Y-49104750D01*
X25308349Y-49124962D01*
X25299170Y-49144368D01*
X25288134Y-49162781D01*
X25275346Y-49180024D01*
X25260930Y-49195930D01*
X25245024Y-49210346D01*
X25227781Y-49223134D01*
X25209368Y-49234170D01*
X25189962Y-49243349D01*
X25169750Y-49250581D01*
X25148926Y-49255797D01*
X25127691Y-49258947D01*
X25106250Y-49260000D01*
X24593750Y-49260000D01*
X24572309Y-49258947D01*
X24551074Y-49255797D01*
X24530250Y-49250581D01*
X24510038Y-49243349D01*
X24490632Y-49234170D01*
X24472219Y-49223134D01*
X24454976Y-49210346D01*
X24439070Y-49195930D01*
X24424654Y-49180024D01*
X24411866Y-49162781D01*
X24400830Y-49144368D01*
X24391651Y-49124962D01*
X24384419Y-49104750D01*
X24379203Y-49083926D01*
X24376053Y-49062691D01*
X24375000Y-49041250D01*
X24375000Y-48603750D01*
X24376053Y-48582309D01*
X24379203Y-48561074D01*
X24384419Y-48540250D01*
X24391651Y-48520038D01*
X24400830Y-48500632D01*
X24411866Y-48482219D01*
X24424654Y-48464976D01*
X24439070Y-48449070D01*
X24454976Y-48434654D01*
X24472219Y-48421866D01*
X24490632Y-48410830D01*
X24510038Y-48401651D01*
X24530250Y-48394419D01*
X24551074Y-48389203D01*
X24572309Y-48386053D01*
X24593750Y-48385000D01*
X25106250Y-48385000D01*
X25127691Y-48386053D01*
X25127691Y-48386053D01*
G37*
D14*
X24850000Y-48822500D03*
D13*
G36*
X27180142Y-59911174D02*
G01*
X27203803Y-59914684D01*
X27227007Y-59920496D01*
X27249529Y-59928554D01*
X27271153Y-59938782D01*
X27291670Y-59951079D01*
X27310883Y-59965329D01*
X27328607Y-59981393D01*
X27344671Y-59999117D01*
X27358921Y-60018330D01*
X27371218Y-60038847D01*
X27381446Y-60060471D01*
X27389504Y-60082993D01*
X27395316Y-60106197D01*
X27398826Y-60129858D01*
X27400000Y-60153750D01*
X27400000Y-61066250D01*
X27398826Y-61090142D01*
X27395316Y-61113803D01*
X27389504Y-61137007D01*
X27381446Y-61159529D01*
X27371218Y-61181153D01*
X27358921Y-61201670D01*
X27344671Y-61220883D01*
X27328607Y-61238607D01*
X27310883Y-61254671D01*
X27291670Y-61268921D01*
X27271153Y-61281218D01*
X27249529Y-61291446D01*
X27227007Y-61299504D01*
X27203803Y-61305316D01*
X27180142Y-61308826D01*
X27156250Y-61310000D01*
X26668750Y-61310000D01*
X26644858Y-61308826D01*
X26621197Y-61305316D01*
X26597993Y-61299504D01*
X26575471Y-61291446D01*
X26553847Y-61281218D01*
X26533330Y-61268921D01*
X26514117Y-61254671D01*
X26496393Y-61238607D01*
X26480329Y-61220883D01*
X26466079Y-61201670D01*
X26453782Y-61181153D01*
X26443554Y-61159529D01*
X26435496Y-61137007D01*
X26429684Y-61113803D01*
X26426174Y-61090142D01*
X26425000Y-61066250D01*
X26425000Y-60153750D01*
X26426174Y-60129858D01*
X26429684Y-60106197D01*
X26435496Y-60082993D01*
X26443554Y-60060471D01*
X26453782Y-60038847D01*
X26466079Y-60018330D01*
X26480329Y-59999117D01*
X26496393Y-59981393D01*
X26514117Y-59965329D01*
X26533330Y-59951079D01*
X26553847Y-59938782D01*
X26575471Y-59928554D01*
X26597993Y-59920496D01*
X26621197Y-59914684D01*
X26644858Y-59911174D01*
X26668750Y-59910000D01*
X27156250Y-59910000D01*
X27180142Y-59911174D01*
X27180142Y-59911174D01*
G37*
D22*
X26912500Y-60610000D03*
D13*
G36*
X29055142Y-59911174D02*
G01*
X29078803Y-59914684D01*
X29102007Y-59920496D01*
X29124529Y-59928554D01*
X29146153Y-59938782D01*
X29166670Y-59951079D01*
X29185883Y-59965329D01*
X29203607Y-59981393D01*
X29219671Y-59999117D01*
X29233921Y-60018330D01*
X29246218Y-60038847D01*
X29256446Y-60060471D01*
X29264504Y-60082993D01*
X29270316Y-60106197D01*
X29273826Y-60129858D01*
X29275000Y-60153750D01*
X29275000Y-61066250D01*
X29273826Y-61090142D01*
X29270316Y-61113803D01*
X29264504Y-61137007D01*
X29256446Y-61159529D01*
X29246218Y-61181153D01*
X29233921Y-61201670D01*
X29219671Y-61220883D01*
X29203607Y-61238607D01*
X29185883Y-61254671D01*
X29166670Y-61268921D01*
X29146153Y-61281218D01*
X29124529Y-61291446D01*
X29102007Y-61299504D01*
X29078803Y-61305316D01*
X29055142Y-61308826D01*
X29031250Y-61310000D01*
X28543750Y-61310000D01*
X28519858Y-61308826D01*
X28496197Y-61305316D01*
X28472993Y-61299504D01*
X28450471Y-61291446D01*
X28428847Y-61281218D01*
X28408330Y-61268921D01*
X28389117Y-61254671D01*
X28371393Y-61238607D01*
X28355329Y-61220883D01*
X28341079Y-61201670D01*
X28328782Y-61181153D01*
X28318554Y-61159529D01*
X28310496Y-61137007D01*
X28304684Y-61113803D01*
X28301174Y-61090142D01*
X28300000Y-61066250D01*
X28300000Y-60153750D01*
X28301174Y-60129858D01*
X28304684Y-60106197D01*
X28310496Y-60082993D01*
X28318554Y-60060471D01*
X28328782Y-60038847D01*
X28341079Y-60018330D01*
X28355329Y-59999117D01*
X28371393Y-59981393D01*
X28389117Y-59965329D01*
X28408330Y-59951079D01*
X28428847Y-59938782D01*
X28450471Y-59928554D01*
X28472993Y-59920496D01*
X28496197Y-59914684D01*
X28519858Y-59911174D01*
X28543750Y-59910000D01*
X29031250Y-59910000D01*
X29055142Y-59911174D01*
X29055142Y-59911174D01*
G37*
D22*
X28787500Y-60610000D03*
D13*
G36*
X31330142Y-61936174D02*
G01*
X31353803Y-61939684D01*
X31377007Y-61945496D01*
X31399529Y-61953554D01*
X31421153Y-61963782D01*
X31441670Y-61976079D01*
X31460883Y-61990329D01*
X31478607Y-62006393D01*
X31494671Y-62024117D01*
X31508921Y-62043330D01*
X31521218Y-62063847D01*
X31531446Y-62085471D01*
X31539504Y-62107993D01*
X31545316Y-62131197D01*
X31548826Y-62154858D01*
X31550000Y-62178750D01*
X31550000Y-62666250D01*
X31548826Y-62690142D01*
X31545316Y-62713803D01*
X31539504Y-62737007D01*
X31531446Y-62759529D01*
X31521218Y-62781153D01*
X31508921Y-62801670D01*
X31494671Y-62820883D01*
X31478607Y-62838607D01*
X31460883Y-62854671D01*
X31441670Y-62868921D01*
X31421153Y-62881218D01*
X31399529Y-62891446D01*
X31377007Y-62899504D01*
X31353803Y-62905316D01*
X31330142Y-62908826D01*
X31306250Y-62910000D01*
X30393750Y-62910000D01*
X30369858Y-62908826D01*
X30346197Y-62905316D01*
X30322993Y-62899504D01*
X30300471Y-62891446D01*
X30278847Y-62881218D01*
X30258330Y-62868921D01*
X30239117Y-62854671D01*
X30221393Y-62838607D01*
X30205329Y-62820883D01*
X30191079Y-62801670D01*
X30178782Y-62781153D01*
X30168554Y-62759529D01*
X30160496Y-62737007D01*
X30154684Y-62713803D01*
X30151174Y-62690142D01*
X30150000Y-62666250D01*
X30150000Y-62178750D01*
X30151174Y-62154858D01*
X30154684Y-62131197D01*
X30160496Y-62107993D01*
X30168554Y-62085471D01*
X30178782Y-62063847D01*
X30191079Y-62043330D01*
X30205329Y-62024117D01*
X30221393Y-62006393D01*
X30239117Y-61990329D01*
X30258330Y-61976079D01*
X30278847Y-61963782D01*
X30300471Y-61953554D01*
X30322993Y-61945496D01*
X30346197Y-61939684D01*
X30369858Y-61936174D01*
X30393750Y-61935000D01*
X31306250Y-61935000D01*
X31330142Y-61936174D01*
X31330142Y-61936174D01*
G37*
D22*
X30850000Y-62422500D03*
D13*
G36*
X31330142Y-63811174D02*
G01*
X31353803Y-63814684D01*
X31377007Y-63820496D01*
X31399529Y-63828554D01*
X31421153Y-63838782D01*
X31441670Y-63851079D01*
X31460883Y-63865329D01*
X31478607Y-63881393D01*
X31494671Y-63899117D01*
X31508921Y-63918330D01*
X31521218Y-63938847D01*
X31531446Y-63960471D01*
X31539504Y-63982993D01*
X31545316Y-64006197D01*
X31548826Y-64029858D01*
X31550000Y-64053750D01*
X31550000Y-64541250D01*
X31548826Y-64565142D01*
X31545316Y-64588803D01*
X31539504Y-64612007D01*
X31531446Y-64634529D01*
X31521218Y-64656153D01*
X31508921Y-64676670D01*
X31494671Y-64695883D01*
X31478607Y-64713607D01*
X31460883Y-64729671D01*
X31441670Y-64743921D01*
X31421153Y-64756218D01*
X31399529Y-64766446D01*
X31377007Y-64774504D01*
X31353803Y-64780316D01*
X31330142Y-64783826D01*
X31306250Y-64785000D01*
X30393750Y-64785000D01*
X30369858Y-64783826D01*
X30346197Y-64780316D01*
X30322993Y-64774504D01*
X30300471Y-64766446D01*
X30278847Y-64756218D01*
X30258330Y-64743921D01*
X30239117Y-64729671D01*
X30221393Y-64713607D01*
X30205329Y-64695883D01*
X30191079Y-64676670D01*
X30178782Y-64656153D01*
X30168554Y-64634529D01*
X30160496Y-64612007D01*
X30154684Y-64588803D01*
X30151174Y-64565142D01*
X30150000Y-64541250D01*
X30150000Y-64053750D01*
X30151174Y-64029858D01*
X30154684Y-64006197D01*
X30160496Y-63982993D01*
X30168554Y-63960471D01*
X30178782Y-63938847D01*
X30191079Y-63918330D01*
X30205329Y-63899117D01*
X30221393Y-63881393D01*
X30239117Y-63865329D01*
X30258330Y-63851079D01*
X30278847Y-63838782D01*
X30300471Y-63828554D01*
X30322993Y-63820496D01*
X30346197Y-63814684D01*
X30369858Y-63811174D01*
X30393750Y-63810000D01*
X31306250Y-63810000D01*
X31330142Y-63811174D01*
X31330142Y-63811174D01*
G37*
D22*
X30850000Y-64297500D03*
D13*
G36*
X37627691Y-45711053D02*
G01*
X37648926Y-45714203D01*
X37669750Y-45719419D01*
X37689962Y-45726651D01*
X37709368Y-45735830D01*
X37727781Y-45746866D01*
X37745024Y-45759654D01*
X37760930Y-45774070D01*
X37775346Y-45789976D01*
X37788134Y-45807219D01*
X37799170Y-45825632D01*
X37808349Y-45845038D01*
X37815581Y-45865250D01*
X37820797Y-45886074D01*
X37823947Y-45907309D01*
X37825000Y-45928750D01*
X37825000Y-46366250D01*
X37823947Y-46387691D01*
X37820797Y-46408926D01*
X37815581Y-46429750D01*
X37808349Y-46449962D01*
X37799170Y-46469368D01*
X37788134Y-46487781D01*
X37775346Y-46505024D01*
X37760930Y-46520930D01*
X37745024Y-46535346D01*
X37727781Y-46548134D01*
X37709368Y-46559170D01*
X37689962Y-46568349D01*
X37669750Y-46575581D01*
X37648926Y-46580797D01*
X37627691Y-46583947D01*
X37606250Y-46585000D01*
X37093750Y-46585000D01*
X37072309Y-46583947D01*
X37051074Y-46580797D01*
X37030250Y-46575581D01*
X37010038Y-46568349D01*
X36990632Y-46559170D01*
X36972219Y-46548134D01*
X36954976Y-46535346D01*
X36939070Y-46520930D01*
X36924654Y-46505024D01*
X36911866Y-46487781D01*
X36900830Y-46469368D01*
X36891651Y-46449962D01*
X36884419Y-46429750D01*
X36879203Y-46408926D01*
X36876053Y-46387691D01*
X36875000Y-46366250D01*
X36875000Y-45928750D01*
X36876053Y-45907309D01*
X36879203Y-45886074D01*
X36884419Y-45865250D01*
X36891651Y-45845038D01*
X36900830Y-45825632D01*
X36911866Y-45807219D01*
X36924654Y-45789976D01*
X36939070Y-45774070D01*
X36954976Y-45759654D01*
X36972219Y-45746866D01*
X36990632Y-45735830D01*
X37010038Y-45726651D01*
X37030250Y-45719419D01*
X37051074Y-45714203D01*
X37072309Y-45711053D01*
X37093750Y-45710000D01*
X37606250Y-45710000D01*
X37627691Y-45711053D01*
X37627691Y-45711053D01*
G37*
D14*
X37350000Y-46147500D03*
D13*
G36*
X37627691Y-44136053D02*
G01*
X37648926Y-44139203D01*
X37669750Y-44144419D01*
X37689962Y-44151651D01*
X37709368Y-44160830D01*
X37727781Y-44171866D01*
X37745024Y-44184654D01*
X37760930Y-44199070D01*
X37775346Y-44214976D01*
X37788134Y-44232219D01*
X37799170Y-44250632D01*
X37808349Y-44270038D01*
X37815581Y-44290250D01*
X37820797Y-44311074D01*
X37823947Y-44332309D01*
X37825000Y-44353750D01*
X37825000Y-44791250D01*
X37823947Y-44812691D01*
X37820797Y-44833926D01*
X37815581Y-44854750D01*
X37808349Y-44874962D01*
X37799170Y-44894368D01*
X37788134Y-44912781D01*
X37775346Y-44930024D01*
X37760930Y-44945930D01*
X37745024Y-44960346D01*
X37727781Y-44973134D01*
X37709368Y-44984170D01*
X37689962Y-44993349D01*
X37669750Y-45000581D01*
X37648926Y-45005797D01*
X37627691Y-45008947D01*
X37606250Y-45010000D01*
X37093750Y-45010000D01*
X37072309Y-45008947D01*
X37051074Y-45005797D01*
X37030250Y-45000581D01*
X37010038Y-44993349D01*
X36990632Y-44984170D01*
X36972219Y-44973134D01*
X36954976Y-44960346D01*
X36939070Y-44945930D01*
X36924654Y-44930024D01*
X36911866Y-44912781D01*
X36900830Y-44894368D01*
X36891651Y-44874962D01*
X36884419Y-44854750D01*
X36879203Y-44833926D01*
X36876053Y-44812691D01*
X36875000Y-44791250D01*
X36875000Y-44353750D01*
X36876053Y-44332309D01*
X36879203Y-44311074D01*
X36884419Y-44290250D01*
X36891651Y-44270038D01*
X36900830Y-44250632D01*
X36911866Y-44232219D01*
X36924654Y-44214976D01*
X36939070Y-44199070D01*
X36954976Y-44184654D01*
X36972219Y-44171866D01*
X36990632Y-44160830D01*
X37010038Y-44151651D01*
X37030250Y-44144419D01*
X37051074Y-44139203D01*
X37072309Y-44136053D01*
X37093750Y-44135000D01*
X37606250Y-44135000D01*
X37627691Y-44136053D01*
X37627691Y-44136053D01*
G37*
D14*
X37350000Y-44572500D03*
D13*
G36*
X34627691Y-62136053D02*
G01*
X34648926Y-62139203D01*
X34669750Y-62144419D01*
X34689962Y-62151651D01*
X34709368Y-62160830D01*
X34727781Y-62171866D01*
X34745024Y-62184654D01*
X34760930Y-62199070D01*
X34775346Y-62214976D01*
X34788134Y-62232219D01*
X34799170Y-62250632D01*
X34808349Y-62270038D01*
X34815581Y-62290250D01*
X34820797Y-62311074D01*
X34823947Y-62332309D01*
X34825000Y-62353750D01*
X34825000Y-62791250D01*
X34823947Y-62812691D01*
X34820797Y-62833926D01*
X34815581Y-62854750D01*
X34808349Y-62874962D01*
X34799170Y-62894368D01*
X34788134Y-62912781D01*
X34775346Y-62930024D01*
X34760930Y-62945930D01*
X34745024Y-62960346D01*
X34727781Y-62973134D01*
X34709368Y-62984170D01*
X34689962Y-62993349D01*
X34669750Y-63000581D01*
X34648926Y-63005797D01*
X34627691Y-63008947D01*
X34606250Y-63010000D01*
X34093750Y-63010000D01*
X34072309Y-63008947D01*
X34051074Y-63005797D01*
X34030250Y-63000581D01*
X34010038Y-62993349D01*
X33990632Y-62984170D01*
X33972219Y-62973134D01*
X33954976Y-62960346D01*
X33939070Y-62945930D01*
X33924654Y-62930024D01*
X33911866Y-62912781D01*
X33900830Y-62894368D01*
X33891651Y-62874962D01*
X33884419Y-62854750D01*
X33879203Y-62833926D01*
X33876053Y-62812691D01*
X33875000Y-62791250D01*
X33875000Y-62353750D01*
X33876053Y-62332309D01*
X33879203Y-62311074D01*
X33884419Y-62290250D01*
X33891651Y-62270038D01*
X33900830Y-62250632D01*
X33911866Y-62232219D01*
X33924654Y-62214976D01*
X33939070Y-62199070D01*
X33954976Y-62184654D01*
X33972219Y-62171866D01*
X33990632Y-62160830D01*
X34010038Y-62151651D01*
X34030250Y-62144419D01*
X34051074Y-62139203D01*
X34072309Y-62136053D01*
X34093750Y-62135000D01*
X34606250Y-62135000D01*
X34627691Y-62136053D01*
X34627691Y-62136053D01*
G37*
D14*
X34350000Y-62572500D03*
D13*
G36*
X34627691Y-63711053D02*
G01*
X34648926Y-63714203D01*
X34669750Y-63719419D01*
X34689962Y-63726651D01*
X34709368Y-63735830D01*
X34727781Y-63746866D01*
X34745024Y-63759654D01*
X34760930Y-63774070D01*
X34775346Y-63789976D01*
X34788134Y-63807219D01*
X34799170Y-63825632D01*
X34808349Y-63845038D01*
X34815581Y-63865250D01*
X34820797Y-63886074D01*
X34823947Y-63907309D01*
X34825000Y-63928750D01*
X34825000Y-64366250D01*
X34823947Y-64387691D01*
X34820797Y-64408926D01*
X34815581Y-64429750D01*
X34808349Y-64449962D01*
X34799170Y-64469368D01*
X34788134Y-64487781D01*
X34775346Y-64505024D01*
X34760930Y-64520930D01*
X34745024Y-64535346D01*
X34727781Y-64548134D01*
X34709368Y-64559170D01*
X34689962Y-64568349D01*
X34669750Y-64575581D01*
X34648926Y-64580797D01*
X34627691Y-64583947D01*
X34606250Y-64585000D01*
X34093750Y-64585000D01*
X34072309Y-64583947D01*
X34051074Y-64580797D01*
X34030250Y-64575581D01*
X34010038Y-64568349D01*
X33990632Y-64559170D01*
X33972219Y-64548134D01*
X33954976Y-64535346D01*
X33939070Y-64520930D01*
X33924654Y-64505024D01*
X33911866Y-64487781D01*
X33900830Y-64469368D01*
X33891651Y-64449962D01*
X33884419Y-64429750D01*
X33879203Y-64408926D01*
X33876053Y-64387691D01*
X33875000Y-64366250D01*
X33875000Y-63928750D01*
X33876053Y-63907309D01*
X33879203Y-63886074D01*
X33884419Y-63865250D01*
X33891651Y-63845038D01*
X33900830Y-63825632D01*
X33911866Y-63807219D01*
X33924654Y-63789976D01*
X33939070Y-63774070D01*
X33954976Y-63759654D01*
X33972219Y-63746866D01*
X33990632Y-63735830D01*
X34010038Y-63726651D01*
X34030250Y-63719419D01*
X34051074Y-63714203D01*
X34072309Y-63711053D01*
X34093750Y-63710000D01*
X34606250Y-63710000D01*
X34627691Y-63711053D01*
X34627691Y-63711053D01*
G37*
D14*
X34350000Y-64147500D03*
D13*
G36*
X30127691Y-58386053D02*
G01*
X30148926Y-58389203D01*
X30169750Y-58394419D01*
X30189962Y-58401651D01*
X30209368Y-58410830D01*
X30227781Y-58421866D01*
X30245024Y-58434654D01*
X30260930Y-58449070D01*
X30275346Y-58464976D01*
X30288134Y-58482219D01*
X30299170Y-58500632D01*
X30308349Y-58520038D01*
X30315581Y-58540250D01*
X30320797Y-58561074D01*
X30323947Y-58582309D01*
X30325000Y-58603750D01*
X30325000Y-59116250D01*
X30323947Y-59137691D01*
X30320797Y-59158926D01*
X30315581Y-59179750D01*
X30308349Y-59199962D01*
X30299170Y-59219368D01*
X30288134Y-59237781D01*
X30275346Y-59255024D01*
X30260930Y-59270930D01*
X30245024Y-59285346D01*
X30227781Y-59298134D01*
X30209368Y-59309170D01*
X30189962Y-59318349D01*
X30169750Y-59325581D01*
X30148926Y-59330797D01*
X30127691Y-59333947D01*
X30106250Y-59335000D01*
X29668750Y-59335000D01*
X29647309Y-59333947D01*
X29626074Y-59330797D01*
X29605250Y-59325581D01*
X29585038Y-59318349D01*
X29565632Y-59309170D01*
X29547219Y-59298134D01*
X29529976Y-59285346D01*
X29514070Y-59270930D01*
X29499654Y-59255024D01*
X29486866Y-59237781D01*
X29475830Y-59219368D01*
X29466651Y-59199962D01*
X29459419Y-59179750D01*
X29454203Y-59158926D01*
X29451053Y-59137691D01*
X29450000Y-59116250D01*
X29450000Y-58603750D01*
X29451053Y-58582309D01*
X29454203Y-58561074D01*
X29459419Y-58540250D01*
X29466651Y-58520038D01*
X29475830Y-58500632D01*
X29486866Y-58482219D01*
X29499654Y-58464976D01*
X29514070Y-58449070D01*
X29529976Y-58434654D01*
X29547219Y-58421866D01*
X29565632Y-58410830D01*
X29585038Y-58401651D01*
X29605250Y-58394419D01*
X29626074Y-58389203D01*
X29647309Y-58386053D01*
X29668750Y-58385000D01*
X30106250Y-58385000D01*
X30127691Y-58386053D01*
X30127691Y-58386053D01*
G37*
D14*
X29887500Y-58860000D03*
D13*
G36*
X28552691Y-58386053D02*
G01*
X28573926Y-58389203D01*
X28594750Y-58394419D01*
X28614962Y-58401651D01*
X28634368Y-58410830D01*
X28652781Y-58421866D01*
X28670024Y-58434654D01*
X28685930Y-58449070D01*
X28700346Y-58464976D01*
X28713134Y-58482219D01*
X28724170Y-58500632D01*
X28733349Y-58520038D01*
X28740581Y-58540250D01*
X28745797Y-58561074D01*
X28748947Y-58582309D01*
X28750000Y-58603750D01*
X28750000Y-59116250D01*
X28748947Y-59137691D01*
X28745797Y-59158926D01*
X28740581Y-59179750D01*
X28733349Y-59199962D01*
X28724170Y-59219368D01*
X28713134Y-59237781D01*
X28700346Y-59255024D01*
X28685930Y-59270930D01*
X28670024Y-59285346D01*
X28652781Y-59298134D01*
X28634368Y-59309170D01*
X28614962Y-59318349D01*
X28594750Y-59325581D01*
X28573926Y-59330797D01*
X28552691Y-59333947D01*
X28531250Y-59335000D01*
X28093750Y-59335000D01*
X28072309Y-59333947D01*
X28051074Y-59330797D01*
X28030250Y-59325581D01*
X28010038Y-59318349D01*
X27990632Y-59309170D01*
X27972219Y-59298134D01*
X27954976Y-59285346D01*
X27939070Y-59270930D01*
X27924654Y-59255024D01*
X27911866Y-59237781D01*
X27900830Y-59219368D01*
X27891651Y-59199962D01*
X27884419Y-59179750D01*
X27879203Y-59158926D01*
X27876053Y-59137691D01*
X27875000Y-59116250D01*
X27875000Y-58603750D01*
X27876053Y-58582309D01*
X27879203Y-58561074D01*
X27884419Y-58540250D01*
X27891651Y-58520038D01*
X27900830Y-58500632D01*
X27911866Y-58482219D01*
X27924654Y-58464976D01*
X27939070Y-58449070D01*
X27954976Y-58434654D01*
X27972219Y-58421866D01*
X27990632Y-58410830D01*
X28010038Y-58401651D01*
X28030250Y-58394419D01*
X28051074Y-58389203D01*
X28072309Y-58386053D01*
X28093750Y-58385000D01*
X28531250Y-58385000D01*
X28552691Y-58386053D01*
X28552691Y-58386053D01*
G37*
D14*
X28312500Y-58860000D03*
D13*
G36*
X32877691Y-63711053D02*
G01*
X32898926Y-63714203D01*
X32919750Y-63719419D01*
X32939962Y-63726651D01*
X32959368Y-63735830D01*
X32977781Y-63746866D01*
X32995024Y-63759654D01*
X33010930Y-63774070D01*
X33025346Y-63789976D01*
X33038134Y-63807219D01*
X33049170Y-63825632D01*
X33058349Y-63845038D01*
X33065581Y-63865250D01*
X33070797Y-63886074D01*
X33073947Y-63907309D01*
X33075000Y-63928750D01*
X33075000Y-64366250D01*
X33073947Y-64387691D01*
X33070797Y-64408926D01*
X33065581Y-64429750D01*
X33058349Y-64449962D01*
X33049170Y-64469368D01*
X33038134Y-64487781D01*
X33025346Y-64505024D01*
X33010930Y-64520930D01*
X32995024Y-64535346D01*
X32977781Y-64548134D01*
X32959368Y-64559170D01*
X32939962Y-64568349D01*
X32919750Y-64575581D01*
X32898926Y-64580797D01*
X32877691Y-64583947D01*
X32856250Y-64585000D01*
X32343750Y-64585000D01*
X32322309Y-64583947D01*
X32301074Y-64580797D01*
X32280250Y-64575581D01*
X32260038Y-64568349D01*
X32240632Y-64559170D01*
X32222219Y-64548134D01*
X32204976Y-64535346D01*
X32189070Y-64520930D01*
X32174654Y-64505024D01*
X32161866Y-64487781D01*
X32150830Y-64469368D01*
X32141651Y-64449962D01*
X32134419Y-64429750D01*
X32129203Y-64408926D01*
X32126053Y-64387691D01*
X32125000Y-64366250D01*
X32125000Y-63928750D01*
X32126053Y-63907309D01*
X32129203Y-63886074D01*
X32134419Y-63865250D01*
X32141651Y-63845038D01*
X32150830Y-63825632D01*
X32161866Y-63807219D01*
X32174654Y-63789976D01*
X32189070Y-63774070D01*
X32204976Y-63759654D01*
X32222219Y-63746866D01*
X32240632Y-63735830D01*
X32260038Y-63726651D01*
X32280250Y-63719419D01*
X32301074Y-63714203D01*
X32322309Y-63711053D01*
X32343750Y-63710000D01*
X32856250Y-63710000D01*
X32877691Y-63711053D01*
X32877691Y-63711053D01*
G37*
D14*
X32600000Y-64147500D03*
D13*
G36*
X32877691Y-62136053D02*
G01*
X32898926Y-62139203D01*
X32919750Y-62144419D01*
X32939962Y-62151651D01*
X32959368Y-62160830D01*
X32977781Y-62171866D01*
X32995024Y-62184654D01*
X33010930Y-62199070D01*
X33025346Y-62214976D01*
X33038134Y-62232219D01*
X33049170Y-62250632D01*
X33058349Y-62270038D01*
X33065581Y-62290250D01*
X33070797Y-62311074D01*
X33073947Y-62332309D01*
X33075000Y-62353750D01*
X33075000Y-62791250D01*
X33073947Y-62812691D01*
X33070797Y-62833926D01*
X33065581Y-62854750D01*
X33058349Y-62874962D01*
X33049170Y-62894368D01*
X33038134Y-62912781D01*
X33025346Y-62930024D01*
X33010930Y-62945930D01*
X32995024Y-62960346D01*
X32977781Y-62973134D01*
X32959368Y-62984170D01*
X32939962Y-62993349D01*
X32919750Y-63000581D01*
X32898926Y-63005797D01*
X32877691Y-63008947D01*
X32856250Y-63010000D01*
X32343750Y-63010000D01*
X32322309Y-63008947D01*
X32301074Y-63005797D01*
X32280250Y-63000581D01*
X32260038Y-62993349D01*
X32240632Y-62984170D01*
X32222219Y-62973134D01*
X32204976Y-62960346D01*
X32189070Y-62945930D01*
X32174654Y-62930024D01*
X32161866Y-62912781D01*
X32150830Y-62894368D01*
X32141651Y-62874962D01*
X32134419Y-62854750D01*
X32129203Y-62833926D01*
X32126053Y-62812691D01*
X32125000Y-62791250D01*
X32125000Y-62353750D01*
X32126053Y-62332309D01*
X32129203Y-62311074D01*
X32134419Y-62290250D01*
X32141651Y-62270038D01*
X32150830Y-62250632D01*
X32161866Y-62232219D01*
X32174654Y-62214976D01*
X32189070Y-62199070D01*
X32204976Y-62184654D01*
X32222219Y-62171866D01*
X32240632Y-62160830D01*
X32260038Y-62151651D01*
X32280250Y-62144419D01*
X32301074Y-62139203D01*
X32322309Y-62136053D01*
X32343750Y-62135000D01*
X32856250Y-62135000D01*
X32877691Y-62136053D01*
X32877691Y-62136053D01*
G37*
D14*
X32600000Y-62572500D03*
D13*
G36*
X30377691Y-48386053D02*
G01*
X30398926Y-48389203D01*
X30419750Y-48394419D01*
X30439962Y-48401651D01*
X30459368Y-48410830D01*
X30477781Y-48421866D01*
X30495024Y-48434654D01*
X30510930Y-48449070D01*
X30525346Y-48464976D01*
X30538134Y-48482219D01*
X30549170Y-48500632D01*
X30558349Y-48520038D01*
X30565581Y-48540250D01*
X30570797Y-48561074D01*
X30573947Y-48582309D01*
X30575000Y-48603750D01*
X30575000Y-49041250D01*
X30573947Y-49062691D01*
X30570797Y-49083926D01*
X30565581Y-49104750D01*
X30558349Y-49124962D01*
X30549170Y-49144368D01*
X30538134Y-49162781D01*
X30525346Y-49180024D01*
X30510930Y-49195930D01*
X30495024Y-49210346D01*
X30477781Y-49223134D01*
X30459368Y-49234170D01*
X30439962Y-49243349D01*
X30419750Y-49250581D01*
X30398926Y-49255797D01*
X30377691Y-49258947D01*
X30356250Y-49260000D01*
X29843750Y-49260000D01*
X29822309Y-49258947D01*
X29801074Y-49255797D01*
X29780250Y-49250581D01*
X29760038Y-49243349D01*
X29740632Y-49234170D01*
X29722219Y-49223134D01*
X29704976Y-49210346D01*
X29689070Y-49195930D01*
X29674654Y-49180024D01*
X29661866Y-49162781D01*
X29650830Y-49144368D01*
X29641651Y-49124962D01*
X29634419Y-49104750D01*
X29629203Y-49083926D01*
X29626053Y-49062691D01*
X29625000Y-49041250D01*
X29625000Y-48603750D01*
X29626053Y-48582309D01*
X29629203Y-48561074D01*
X29634419Y-48540250D01*
X29641651Y-48520038D01*
X29650830Y-48500632D01*
X29661866Y-48482219D01*
X29674654Y-48464976D01*
X29689070Y-48449070D01*
X29704976Y-48434654D01*
X29722219Y-48421866D01*
X29740632Y-48410830D01*
X29760038Y-48401651D01*
X29780250Y-48394419D01*
X29801074Y-48389203D01*
X29822309Y-48386053D01*
X29843750Y-48385000D01*
X30356250Y-48385000D01*
X30377691Y-48386053D01*
X30377691Y-48386053D01*
G37*
D14*
X30100000Y-48822500D03*
D13*
G36*
X30377691Y-49961053D02*
G01*
X30398926Y-49964203D01*
X30419750Y-49969419D01*
X30439962Y-49976651D01*
X30459368Y-49985830D01*
X30477781Y-49996866D01*
X30495024Y-50009654D01*
X30510930Y-50024070D01*
X30525346Y-50039976D01*
X30538134Y-50057219D01*
X30549170Y-50075632D01*
X30558349Y-50095038D01*
X30565581Y-50115250D01*
X30570797Y-50136074D01*
X30573947Y-50157309D01*
X30575000Y-50178750D01*
X30575000Y-50616250D01*
X30573947Y-50637691D01*
X30570797Y-50658926D01*
X30565581Y-50679750D01*
X30558349Y-50699962D01*
X30549170Y-50719368D01*
X30538134Y-50737781D01*
X30525346Y-50755024D01*
X30510930Y-50770930D01*
X30495024Y-50785346D01*
X30477781Y-50798134D01*
X30459368Y-50809170D01*
X30439962Y-50818349D01*
X30419750Y-50825581D01*
X30398926Y-50830797D01*
X30377691Y-50833947D01*
X30356250Y-50835000D01*
X29843750Y-50835000D01*
X29822309Y-50833947D01*
X29801074Y-50830797D01*
X29780250Y-50825581D01*
X29760038Y-50818349D01*
X29740632Y-50809170D01*
X29722219Y-50798134D01*
X29704976Y-50785346D01*
X29689070Y-50770930D01*
X29674654Y-50755024D01*
X29661866Y-50737781D01*
X29650830Y-50719368D01*
X29641651Y-50699962D01*
X29634419Y-50679750D01*
X29629203Y-50658926D01*
X29626053Y-50637691D01*
X29625000Y-50616250D01*
X29625000Y-50178750D01*
X29626053Y-50157309D01*
X29629203Y-50136074D01*
X29634419Y-50115250D01*
X29641651Y-50095038D01*
X29650830Y-50075632D01*
X29661866Y-50057219D01*
X29674654Y-50039976D01*
X29689070Y-50024070D01*
X29704976Y-50009654D01*
X29722219Y-49996866D01*
X29740632Y-49985830D01*
X29760038Y-49976651D01*
X29780250Y-49969419D01*
X29801074Y-49964203D01*
X29822309Y-49961053D01*
X29843750Y-49960000D01*
X30356250Y-49960000D01*
X30377691Y-49961053D01*
X30377691Y-49961053D01*
G37*
D14*
X30100000Y-50397500D03*
D13*
G36*
X34377691Y-44136053D02*
G01*
X34398926Y-44139203D01*
X34419750Y-44144419D01*
X34439962Y-44151651D01*
X34459368Y-44160830D01*
X34477781Y-44171866D01*
X34495024Y-44184654D01*
X34510930Y-44199070D01*
X34525346Y-44214976D01*
X34538134Y-44232219D01*
X34549170Y-44250632D01*
X34558349Y-44270038D01*
X34565581Y-44290250D01*
X34570797Y-44311074D01*
X34573947Y-44332309D01*
X34575000Y-44353750D01*
X34575000Y-44791250D01*
X34573947Y-44812691D01*
X34570797Y-44833926D01*
X34565581Y-44854750D01*
X34558349Y-44874962D01*
X34549170Y-44894368D01*
X34538134Y-44912781D01*
X34525346Y-44930024D01*
X34510930Y-44945930D01*
X34495024Y-44960346D01*
X34477781Y-44973134D01*
X34459368Y-44984170D01*
X34439962Y-44993349D01*
X34419750Y-45000581D01*
X34398926Y-45005797D01*
X34377691Y-45008947D01*
X34356250Y-45010000D01*
X33843750Y-45010000D01*
X33822309Y-45008947D01*
X33801074Y-45005797D01*
X33780250Y-45000581D01*
X33760038Y-44993349D01*
X33740632Y-44984170D01*
X33722219Y-44973134D01*
X33704976Y-44960346D01*
X33689070Y-44945930D01*
X33674654Y-44930024D01*
X33661866Y-44912781D01*
X33650830Y-44894368D01*
X33641651Y-44874962D01*
X33634419Y-44854750D01*
X33629203Y-44833926D01*
X33626053Y-44812691D01*
X33625000Y-44791250D01*
X33625000Y-44353750D01*
X33626053Y-44332309D01*
X33629203Y-44311074D01*
X33634419Y-44290250D01*
X33641651Y-44270038D01*
X33650830Y-44250632D01*
X33661866Y-44232219D01*
X33674654Y-44214976D01*
X33689070Y-44199070D01*
X33704976Y-44184654D01*
X33722219Y-44171866D01*
X33740632Y-44160830D01*
X33760038Y-44151651D01*
X33780250Y-44144419D01*
X33801074Y-44139203D01*
X33822309Y-44136053D01*
X33843750Y-44135000D01*
X34356250Y-44135000D01*
X34377691Y-44136053D01*
X34377691Y-44136053D01*
G37*
D14*
X34100000Y-44572500D03*
D13*
G36*
X34377691Y-45711053D02*
G01*
X34398926Y-45714203D01*
X34419750Y-45719419D01*
X34439962Y-45726651D01*
X34459368Y-45735830D01*
X34477781Y-45746866D01*
X34495024Y-45759654D01*
X34510930Y-45774070D01*
X34525346Y-45789976D01*
X34538134Y-45807219D01*
X34549170Y-45825632D01*
X34558349Y-45845038D01*
X34565581Y-45865250D01*
X34570797Y-45886074D01*
X34573947Y-45907309D01*
X34575000Y-45928750D01*
X34575000Y-46366250D01*
X34573947Y-46387691D01*
X34570797Y-46408926D01*
X34565581Y-46429750D01*
X34558349Y-46449962D01*
X34549170Y-46469368D01*
X34538134Y-46487781D01*
X34525346Y-46505024D01*
X34510930Y-46520930D01*
X34495024Y-46535346D01*
X34477781Y-46548134D01*
X34459368Y-46559170D01*
X34439962Y-46568349D01*
X34419750Y-46575581D01*
X34398926Y-46580797D01*
X34377691Y-46583947D01*
X34356250Y-46585000D01*
X33843750Y-46585000D01*
X33822309Y-46583947D01*
X33801074Y-46580797D01*
X33780250Y-46575581D01*
X33760038Y-46568349D01*
X33740632Y-46559170D01*
X33722219Y-46548134D01*
X33704976Y-46535346D01*
X33689070Y-46520930D01*
X33674654Y-46505024D01*
X33661866Y-46487781D01*
X33650830Y-46469368D01*
X33641651Y-46449962D01*
X33634419Y-46429750D01*
X33629203Y-46408926D01*
X33626053Y-46387691D01*
X33625000Y-46366250D01*
X33625000Y-45928750D01*
X33626053Y-45907309D01*
X33629203Y-45886074D01*
X33634419Y-45865250D01*
X33641651Y-45845038D01*
X33650830Y-45825632D01*
X33661866Y-45807219D01*
X33674654Y-45789976D01*
X33689070Y-45774070D01*
X33704976Y-45759654D01*
X33722219Y-45746866D01*
X33740632Y-45735830D01*
X33760038Y-45726651D01*
X33780250Y-45719419D01*
X33801074Y-45714203D01*
X33822309Y-45711053D01*
X33843750Y-45710000D01*
X34356250Y-45710000D01*
X34377691Y-45711053D01*
X34377691Y-45711053D01*
G37*
D14*
X34100000Y-46147500D03*
D13*
G36*
X40802691Y-61886053D02*
G01*
X40823926Y-61889203D01*
X40844750Y-61894419D01*
X40864962Y-61901651D01*
X40884368Y-61910830D01*
X40902781Y-61921866D01*
X40920024Y-61934654D01*
X40935930Y-61949070D01*
X40950346Y-61964976D01*
X40963134Y-61982219D01*
X40974170Y-62000632D01*
X40983349Y-62020038D01*
X40990581Y-62040250D01*
X40995797Y-62061074D01*
X40998947Y-62082309D01*
X41000000Y-62103750D01*
X41000000Y-62616250D01*
X40998947Y-62637691D01*
X40995797Y-62658926D01*
X40990581Y-62679750D01*
X40983349Y-62699962D01*
X40974170Y-62719368D01*
X40963134Y-62737781D01*
X40950346Y-62755024D01*
X40935930Y-62770930D01*
X40920024Y-62785346D01*
X40902781Y-62798134D01*
X40884368Y-62809170D01*
X40864962Y-62818349D01*
X40844750Y-62825581D01*
X40823926Y-62830797D01*
X40802691Y-62833947D01*
X40781250Y-62835000D01*
X40343750Y-62835000D01*
X40322309Y-62833947D01*
X40301074Y-62830797D01*
X40280250Y-62825581D01*
X40260038Y-62818349D01*
X40240632Y-62809170D01*
X40222219Y-62798134D01*
X40204976Y-62785346D01*
X40189070Y-62770930D01*
X40174654Y-62755024D01*
X40161866Y-62737781D01*
X40150830Y-62719368D01*
X40141651Y-62699962D01*
X40134419Y-62679750D01*
X40129203Y-62658926D01*
X40126053Y-62637691D01*
X40125000Y-62616250D01*
X40125000Y-62103750D01*
X40126053Y-62082309D01*
X40129203Y-62061074D01*
X40134419Y-62040250D01*
X40141651Y-62020038D01*
X40150830Y-62000632D01*
X40161866Y-61982219D01*
X40174654Y-61964976D01*
X40189070Y-61949070D01*
X40204976Y-61934654D01*
X40222219Y-61921866D01*
X40240632Y-61910830D01*
X40260038Y-61901651D01*
X40280250Y-61894419D01*
X40301074Y-61889203D01*
X40322309Y-61886053D01*
X40343750Y-61885000D01*
X40781250Y-61885000D01*
X40802691Y-61886053D01*
X40802691Y-61886053D01*
G37*
D14*
X40562500Y-62360000D03*
D13*
G36*
X42377691Y-61886053D02*
G01*
X42398926Y-61889203D01*
X42419750Y-61894419D01*
X42439962Y-61901651D01*
X42459368Y-61910830D01*
X42477781Y-61921866D01*
X42495024Y-61934654D01*
X42510930Y-61949070D01*
X42525346Y-61964976D01*
X42538134Y-61982219D01*
X42549170Y-62000632D01*
X42558349Y-62020038D01*
X42565581Y-62040250D01*
X42570797Y-62061074D01*
X42573947Y-62082309D01*
X42575000Y-62103750D01*
X42575000Y-62616250D01*
X42573947Y-62637691D01*
X42570797Y-62658926D01*
X42565581Y-62679750D01*
X42558349Y-62699962D01*
X42549170Y-62719368D01*
X42538134Y-62737781D01*
X42525346Y-62755024D01*
X42510930Y-62770930D01*
X42495024Y-62785346D01*
X42477781Y-62798134D01*
X42459368Y-62809170D01*
X42439962Y-62818349D01*
X42419750Y-62825581D01*
X42398926Y-62830797D01*
X42377691Y-62833947D01*
X42356250Y-62835000D01*
X41918750Y-62835000D01*
X41897309Y-62833947D01*
X41876074Y-62830797D01*
X41855250Y-62825581D01*
X41835038Y-62818349D01*
X41815632Y-62809170D01*
X41797219Y-62798134D01*
X41779976Y-62785346D01*
X41764070Y-62770930D01*
X41749654Y-62755024D01*
X41736866Y-62737781D01*
X41725830Y-62719368D01*
X41716651Y-62699962D01*
X41709419Y-62679750D01*
X41704203Y-62658926D01*
X41701053Y-62637691D01*
X41700000Y-62616250D01*
X41700000Y-62103750D01*
X41701053Y-62082309D01*
X41704203Y-62061074D01*
X41709419Y-62040250D01*
X41716651Y-62020038D01*
X41725830Y-62000632D01*
X41736866Y-61982219D01*
X41749654Y-61964976D01*
X41764070Y-61949070D01*
X41779976Y-61934654D01*
X41797219Y-61921866D01*
X41815632Y-61910830D01*
X41835038Y-61901651D01*
X41855250Y-61894419D01*
X41876074Y-61889203D01*
X41897309Y-61886053D01*
X41918750Y-61885000D01*
X42356250Y-61885000D01*
X42377691Y-61886053D01*
X42377691Y-61886053D01*
G37*
D14*
X42137500Y-62360000D03*
D13*
G36*
X48627691Y-48886053D02*
G01*
X48648926Y-48889203D01*
X48669750Y-48894419D01*
X48689962Y-48901651D01*
X48709368Y-48910830D01*
X48727781Y-48921866D01*
X48745024Y-48934654D01*
X48760930Y-48949070D01*
X48775346Y-48964976D01*
X48788134Y-48982219D01*
X48799170Y-49000632D01*
X48808349Y-49020038D01*
X48815581Y-49040250D01*
X48820797Y-49061074D01*
X48823947Y-49082309D01*
X48825000Y-49103750D01*
X48825000Y-49541250D01*
X48823947Y-49562691D01*
X48820797Y-49583926D01*
X48815581Y-49604750D01*
X48808349Y-49624962D01*
X48799170Y-49644368D01*
X48788134Y-49662781D01*
X48775346Y-49680024D01*
X48760930Y-49695930D01*
X48745024Y-49710346D01*
X48727781Y-49723134D01*
X48709368Y-49734170D01*
X48689962Y-49743349D01*
X48669750Y-49750581D01*
X48648926Y-49755797D01*
X48627691Y-49758947D01*
X48606250Y-49760000D01*
X48093750Y-49760000D01*
X48072309Y-49758947D01*
X48051074Y-49755797D01*
X48030250Y-49750581D01*
X48010038Y-49743349D01*
X47990632Y-49734170D01*
X47972219Y-49723134D01*
X47954976Y-49710346D01*
X47939070Y-49695930D01*
X47924654Y-49680024D01*
X47911866Y-49662781D01*
X47900830Y-49644368D01*
X47891651Y-49624962D01*
X47884419Y-49604750D01*
X47879203Y-49583926D01*
X47876053Y-49562691D01*
X47875000Y-49541250D01*
X47875000Y-49103750D01*
X47876053Y-49082309D01*
X47879203Y-49061074D01*
X47884419Y-49040250D01*
X47891651Y-49020038D01*
X47900830Y-49000632D01*
X47911866Y-48982219D01*
X47924654Y-48964976D01*
X47939070Y-48949070D01*
X47954976Y-48934654D01*
X47972219Y-48921866D01*
X47990632Y-48910830D01*
X48010038Y-48901651D01*
X48030250Y-48894419D01*
X48051074Y-48889203D01*
X48072309Y-48886053D01*
X48093750Y-48885000D01*
X48606250Y-48885000D01*
X48627691Y-48886053D01*
X48627691Y-48886053D01*
G37*
D14*
X48350000Y-49322500D03*
D13*
G36*
X48627691Y-50461053D02*
G01*
X48648926Y-50464203D01*
X48669750Y-50469419D01*
X48689962Y-50476651D01*
X48709368Y-50485830D01*
X48727781Y-50496866D01*
X48745024Y-50509654D01*
X48760930Y-50524070D01*
X48775346Y-50539976D01*
X48788134Y-50557219D01*
X48799170Y-50575632D01*
X48808349Y-50595038D01*
X48815581Y-50615250D01*
X48820797Y-50636074D01*
X48823947Y-50657309D01*
X48825000Y-50678750D01*
X48825000Y-51116250D01*
X48823947Y-51137691D01*
X48820797Y-51158926D01*
X48815581Y-51179750D01*
X48808349Y-51199962D01*
X48799170Y-51219368D01*
X48788134Y-51237781D01*
X48775346Y-51255024D01*
X48760930Y-51270930D01*
X48745024Y-51285346D01*
X48727781Y-51298134D01*
X48709368Y-51309170D01*
X48689962Y-51318349D01*
X48669750Y-51325581D01*
X48648926Y-51330797D01*
X48627691Y-51333947D01*
X48606250Y-51335000D01*
X48093750Y-51335000D01*
X48072309Y-51333947D01*
X48051074Y-51330797D01*
X48030250Y-51325581D01*
X48010038Y-51318349D01*
X47990632Y-51309170D01*
X47972219Y-51298134D01*
X47954976Y-51285346D01*
X47939070Y-51270930D01*
X47924654Y-51255024D01*
X47911866Y-51237781D01*
X47900830Y-51219368D01*
X47891651Y-51199962D01*
X47884419Y-51179750D01*
X47879203Y-51158926D01*
X47876053Y-51137691D01*
X47875000Y-51116250D01*
X47875000Y-50678750D01*
X47876053Y-50657309D01*
X47879203Y-50636074D01*
X47884419Y-50615250D01*
X47891651Y-50595038D01*
X47900830Y-50575632D01*
X47911866Y-50557219D01*
X47924654Y-50539976D01*
X47939070Y-50524070D01*
X47954976Y-50509654D01*
X47972219Y-50496866D01*
X47990632Y-50485830D01*
X48010038Y-50476651D01*
X48030250Y-50469419D01*
X48051074Y-50464203D01*
X48072309Y-50461053D01*
X48093750Y-50460000D01*
X48606250Y-50460000D01*
X48627691Y-50461053D01*
X48627691Y-50461053D01*
G37*
D14*
X48350000Y-50897500D03*
D13*
G36*
X34580142Y-42311174D02*
G01*
X34603803Y-42314684D01*
X34627007Y-42320496D01*
X34649529Y-42328554D01*
X34671153Y-42338782D01*
X34691670Y-42351079D01*
X34710883Y-42365329D01*
X34728607Y-42381393D01*
X34744671Y-42399117D01*
X34758921Y-42418330D01*
X34771218Y-42438847D01*
X34781446Y-42460471D01*
X34789504Y-42482993D01*
X34795316Y-42506197D01*
X34798826Y-42529858D01*
X34800000Y-42553750D01*
X34800000Y-43041250D01*
X34798826Y-43065142D01*
X34795316Y-43088803D01*
X34789504Y-43112007D01*
X34781446Y-43134529D01*
X34771218Y-43156153D01*
X34758921Y-43176670D01*
X34744671Y-43195883D01*
X34728607Y-43213607D01*
X34710883Y-43229671D01*
X34691670Y-43243921D01*
X34671153Y-43256218D01*
X34649529Y-43266446D01*
X34627007Y-43274504D01*
X34603803Y-43280316D01*
X34580142Y-43283826D01*
X34556250Y-43285000D01*
X33643750Y-43285000D01*
X33619858Y-43283826D01*
X33596197Y-43280316D01*
X33572993Y-43274504D01*
X33550471Y-43266446D01*
X33528847Y-43256218D01*
X33508330Y-43243921D01*
X33489117Y-43229671D01*
X33471393Y-43213607D01*
X33455329Y-43195883D01*
X33441079Y-43176670D01*
X33428782Y-43156153D01*
X33418554Y-43134529D01*
X33410496Y-43112007D01*
X33404684Y-43088803D01*
X33401174Y-43065142D01*
X33400000Y-43041250D01*
X33400000Y-42553750D01*
X33401174Y-42529858D01*
X33404684Y-42506197D01*
X33410496Y-42482993D01*
X33418554Y-42460471D01*
X33428782Y-42438847D01*
X33441079Y-42418330D01*
X33455329Y-42399117D01*
X33471393Y-42381393D01*
X33489117Y-42365329D01*
X33508330Y-42351079D01*
X33528847Y-42338782D01*
X33550471Y-42328554D01*
X33572993Y-42320496D01*
X33596197Y-42314684D01*
X33619858Y-42311174D01*
X33643750Y-42310000D01*
X34556250Y-42310000D01*
X34580142Y-42311174D01*
X34580142Y-42311174D01*
G37*
D22*
X34100000Y-42797500D03*
D13*
G36*
X34580142Y-40436174D02*
G01*
X34603803Y-40439684D01*
X34627007Y-40445496D01*
X34649529Y-40453554D01*
X34671153Y-40463782D01*
X34691670Y-40476079D01*
X34710883Y-40490329D01*
X34728607Y-40506393D01*
X34744671Y-40524117D01*
X34758921Y-40543330D01*
X34771218Y-40563847D01*
X34781446Y-40585471D01*
X34789504Y-40607993D01*
X34795316Y-40631197D01*
X34798826Y-40654858D01*
X34800000Y-40678750D01*
X34800000Y-41166250D01*
X34798826Y-41190142D01*
X34795316Y-41213803D01*
X34789504Y-41237007D01*
X34781446Y-41259529D01*
X34771218Y-41281153D01*
X34758921Y-41301670D01*
X34744671Y-41320883D01*
X34728607Y-41338607D01*
X34710883Y-41354671D01*
X34691670Y-41368921D01*
X34671153Y-41381218D01*
X34649529Y-41391446D01*
X34627007Y-41399504D01*
X34603803Y-41405316D01*
X34580142Y-41408826D01*
X34556250Y-41410000D01*
X33643750Y-41410000D01*
X33619858Y-41408826D01*
X33596197Y-41405316D01*
X33572993Y-41399504D01*
X33550471Y-41391446D01*
X33528847Y-41381218D01*
X33508330Y-41368921D01*
X33489117Y-41354671D01*
X33471393Y-41338607D01*
X33455329Y-41320883D01*
X33441079Y-41301670D01*
X33428782Y-41281153D01*
X33418554Y-41259529D01*
X33410496Y-41237007D01*
X33404684Y-41213803D01*
X33401174Y-41190142D01*
X33400000Y-41166250D01*
X33400000Y-40678750D01*
X33401174Y-40654858D01*
X33404684Y-40631197D01*
X33410496Y-40607993D01*
X33418554Y-40585471D01*
X33428782Y-40563847D01*
X33441079Y-40543330D01*
X33455329Y-40524117D01*
X33471393Y-40506393D01*
X33489117Y-40490329D01*
X33508330Y-40476079D01*
X33528847Y-40463782D01*
X33550471Y-40453554D01*
X33572993Y-40445496D01*
X33596197Y-40439684D01*
X33619858Y-40436174D01*
X33643750Y-40435000D01*
X34556250Y-40435000D01*
X34580142Y-40436174D01*
X34580142Y-40436174D01*
G37*
D22*
X34100000Y-40922500D03*
M02*
