G04 #@! TF.GenerationSoftware,KiCad,Pcbnew,(5.1.2-1)-1*
G04 #@! TF.CreationDate,2020-06-07T21:53:54+02:00*
G04 #@! TF.ProjectId,TeensyTest,5465656e-7379-4546-9573-742e6b696361,rev?*
G04 #@! TF.SameCoordinates,Original*
G04 #@! TF.FileFunction,Legend,Top*
G04 #@! TF.FilePolarity,Positive*
%FSLAX46Y46*%
G04 Gerber Fmt 4.6, Leading zero omitted, Abs format (unit mm)*
G04 Created by KiCad (PCBNEW (5.1.2-1)-1) date 2020-06-07 21:53:54*
%MOMM*%
%LPD*%
G04 APERTURE LIST*
%ADD10C,0.100000*%
%ADD11C,0.120000*%
%ADD12C,0.020000*%
%ADD13C,0.152400*%
%ADD14C,0.150000*%
G04 APERTURE END LIST*
D10*
X68058095Y-49507619D02*
X68058095Y-50002857D01*
X67753333Y-49736190D01*
X67753333Y-49850476D01*
X67715238Y-49926666D01*
X67677142Y-49964761D01*
X67600952Y-50002857D01*
X67410476Y-50002857D01*
X67334285Y-49964761D01*
X67296190Y-49926666D01*
X67258095Y-49850476D01*
X67258095Y-49621904D01*
X67296190Y-49545714D01*
X67334285Y-49507619D01*
X67791428Y-50688571D02*
X67258095Y-50688571D01*
X68096190Y-50498095D02*
X67524761Y-50307619D01*
X67524761Y-50802857D01*
X67334285Y-51107619D02*
X67296190Y-51145714D01*
X67258095Y-51107619D01*
X67296190Y-51069523D01*
X67334285Y-51107619D01*
X67258095Y-51107619D01*
X68058095Y-51640952D02*
X68058095Y-51717142D01*
X68020000Y-51793333D01*
X67981904Y-51831428D01*
X67905714Y-51869523D01*
X67753333Y-51907619D01*
X67562857Y-51907619D01*
X67410476Y-51869523D01*
X67334285Y-51831428D01*
X67296190Y-51793333D01*
X67258095Y-51717142D01*
X67258095Y-51640952D01*
X67296190Y-51564761D01*
X67334285Y-51526666D01*
X67410476Y-51488571D01*
X67562857Y-51450476D01*
X67753333Y-51450476D01*
X67905714Y-51488571D01*
X67981904Y-51526666D01*
X68020000Y-51564761D01*
X68058095Y-51640952D01*
X68058095Y-52402857D02*
X68058095Y-52479047D01*
X68020000Y-52555238D01*
X67981904Y-52593333D01*
X67905714Y-52631428D01*
X67753333Y-52669523D01*
X67562857Y-52669523D01*
X67410476Y-52631428D01*
X67334285Y-52593333D01*
X67296190Y-52555238D01*
X67258095Y-52479047D01*
X67258095Y-52402857D01*
X67296190Y-52326666D01*
X67334285Y-52288571D01*
X67410476Y-52250476D01*
X67562857Y-52212380D01*
X67753333Y-52212380D01*
X67905714Y-52250476D01*
X67981904Y-52288571D01*
X68020000Y-52326666D01*
X68058095Y-52402857D01*
X68058095Y-53164761D02*
X68058095Y-53240952D01*
X68020000Y-53317142D01*
X67981904Y-53355238D01*
X67905714Y-53393333D01*
X67753333Y-53431428D01*
X67562857Y-53431428D01*
X67410476Y-53393333D01*
X67334285Y-53355238D01*
X67296190Y-53317142D01*
X67258095Y-53240952D01*
X67258095Y-53164761D01*
X67296190Y-53088571D01*
X67334285Y-53050476D01*
X67410476Y-53012380D01*
X67562857Y-52974285D01*
X67753333Y-52974285D01*
X67905714Y-53012380D01*
X67981904Y-53050476D01*
X68020000Y-53088571D01*
X68058095Y-53164761D01*
X67258095Y-54383809D02*
X67791428Y-54383809D01*
X67715238Y-54383809D02*
X67753333Y-54421904D01*
X67791428Y-54498095D01*
X67791428Y-54612380D01*
X67753333Y-54688571D01*
X67677142Y-54726666D01*
X67258095Y-54726666D01*
X67677142Y-54726666D02*
X67753333Y-54764761D01*
X67791428Y-54840952D01*
X67791428Y-54955238D01*
X67753333Y-55031428D01*
X67677142Y-55069523D01*
X67258095Y-55069523D01*
X67258095Y-55450476D02*
X67791428Y-55450476D01*
X67715238Y-55450476D02*
X67753333Y-55488571D01*
X67791428Y-55564761D01*
X67791428Y-55679047D01*
X67753333Y-55755238D01*
X67677142Y-55793333D01*
X67258095Y-55793333D01*
X67677142Y-55793333D02*
X67753333Y-55831428D01*
X67791428Y-55907619D01*
X67791428Y-56021904D01*
X67753333Y-56098095D01*
X67677142Y-56136190D01*
X67258095Y-56136190D01*
D11*
X66600000Y-35860000D02*
X66600000Y-69860000D01*
X63100000Y-35860000D02*
X67186421Y-35860000D01*
X63100000Y-69860000D02*
X67186421Y-69860000D01*
X66600000Y-69860000D02*
X66013579Y-68733496D01*
X66600000Y-69860000D02*
X67186421Y-68733496D01*
X66600000Y-35860000D02*
X66013579Y-36986504D01*
X66600000Y-35860000D02*
X67186421Y-36986504D01*
D10*
X35166666Y-30907418D02*
X35166666Y-31440751D01*
X34976190Y-30602656D02*
X34785714Y-31174085D01*
X35280952Y-31174085D01*
X35966666Y-30640751D02*
X35585714Y-30640751D01*
X35547619Y-31021704D01*
X35585714Y-30983608D01*
X35661904Y-30945513D01*
X35852380Y-30945513D01*
X35928571Y-30983608D01*
X35966666Y-31021704D01*
X36004761Y-31097894D01*
X36004761Y-31288370D01*
X35966666Y-31364561D01*
X35928571Y-31402656D01*
X35852380Y-31440751D01*
X35661904Y-31440751D01*
X35585714Y-31402656D01*
X35547619Y-31364561D01*
X36347619Y-31364561D02*
X36385714Y-31402656D01*
X36347619Y-31440751D01*
X36309523Y-31402656D01*
X36347619Y-31364561D01*
X36347619Y-31440751D01*
X36880952Y-30640751D02*
X36957142Y-30640751D01*
X37033333Y-30678847D01*
X37071428Y-30716942D01*
X37109523Y-30793132D01*
X37147619Y-30945513D01*
X37147619Y-31135989D01*
X37109523Y-31288370D01*
X37071428Y-31364561D01*
X37033333Y-31402656D01*
X36957142Y-31440751D01*
X36880952Y-31440751D01*
X36804761Y-31402656D01*
X36766666Y-31364561D01*
X36728571Y-31288370D01*
X36690476Y-31135989D01*
X36690476Y-30945513D01*
X36728571Y-30793132D01*
X36766666Y-30716942D01*
X36804761Y-30678847D01*
X36880952Y-30640751D01*
X37642857Y-30640751D02*
X37719047Y-30640751D01*
X37795238Y-30678847D01*
X37833333Y-30716942D01*
X37871428Y-30793132D01*
X37909523Y-30945513D01*
X37909523Y-31135989D01*
X37871428Y-31288370D01*
X37833333Y-31364561D01*
X37795238Y-31402656D01*
X37719047Y-31440751D01*
X37642857Y-31440751D01*
X37566666Y-31402656D01*
X37528571Y-31364561D01*
X37490476Y-31288370D01*
X37452380Y-31135989D01*
X37452380Y-30945513D01*
X37490476Y-30793132D01*
X37528571Y-30716942D01*
X37566666Y-30678847D01*
X37642857Y-30640751D01*
X38404761Y-30640751D02*
X38480952Y-30640751D01*
X38557142Y-30678847D01*
X38595238Y-30716942D01*
X38633333Y-30793132D01*
X38671428Y-30945513D01*
X38671428Y-31135989D01*
X38633333Y-31288370D01*
X38595238Y-31364561D01*
X38557142Y-31402656D01*
X38480952Y-31440751D01*
X38404761Y-31440751D01*
X38328571Y-31402656D01*
X38290476Y-31364561D01*
X38252380Y-31288370D01*
X38214285Y-31135989D01*
X38214285Y-30945513D01*
X38252380Y-30793132D01*
X38290476Y-30716942D01*
X38328571Y-30678847D01*
X38404761Y-30640751D01*
X39623809Y-31440751D02*
X39623809Y-30907418D01*
X39623809Y-30983608D02*
X39661904Y-30945513D01*
X39738095Y-30907418D01*
X39852380Y-30907418D01*
X39928571Y-30945513D01*
X39966666Y-31021704D01*
X39966666Y-31440751D01*
X39966666Y-31021704D02*
X40004761Y-30945513D01*
X40080952Y-30907418D01*
X40195238Y-30907418D01*
X40271428Y-30945513D01*
X40309523Y-31021704D01*
X40309523Y-31440751D01*
X40690476Y-31440751D02*
X40690476Y-30907418D01*
X40690476Y-30983608D02*
X40728571Y-30945513D01*
X40804761Y-30907418D01*
X40919047Y-30907418D01*
X40995238Y-30945513D01*
X41033333Y-31021704D01*
X41033333Y-31440751D01*
X41033333Y-31021704D02*
X41071428Y-30945513D01*
X41147619Y-30907418D01*
X41261904Y-30907418D01*
X41338095Y-30945513D01*
X41376190Y-31021704D01*
X41376190Y-31440751D01*
D11*
X60600000Y-32098847D02*
X15600000Y-32098847D01*
X60600000Y-33360000D02*
X60600000Y-31512426D01*
X15600000Y-33360000D02*
X15600000Y-31512426D01*
X15600000Y-32098847D02*
X16726504Y-31512426D01*
X15600000Y-32098847D02*
X16726504Y-32685268D01*
X60600000Y-32098847D02*
X59473496Y-31512426D01*
X60600000Y-32098847D02*
X59473496Y-32685268D01*
D10*
X39352380Y-43305952D02*
X38352380Y-43305952D01*
X39066666Y-42972619D01*
X38352380Y-42639285D01*
X39352380Y-42639285D01*
X39352380Y-42163095D02*
X38352380Y-42163095D01*
X39304761Y-41734523D02*
X39352380Y-41591666D01*
X39352380Y-41353571D01*
X39304761Y-41258333D01*
X39257142Y-41210714D01*
X39161904Y-41163095D01*
X39066666Y-41163095D01*
X38971428Y-41210714D01*
X38923809Y-41258333D01*
X38876190Y-41353571D01*
X38828571Y-41544047D01*
X38780952Y-41639285D01*
X38733333Y-41686904D01*
X38638095Y-41734523D01*
X38542857Y-41734523D01*
X38447619Y-41686904D01*
X38400000Y-41639285D01*
X38352380Y-41544047D01*
X38352380Y-41305952D01*
X38400000Y-41163095D01*
X38352380Y-40544047D02*
X38352380Y-40353571D01*
X38400000Y-40258333D01*
X38495238Y-40163095D01*
X38685714Y-40115476D01*
X39019047Y-40115476D01*
X39209523Y-40163095D01*
X39304761Y-40258333D01*
X39352380Y-40353571D01*
X39352380Y-40544047D01*
X39304761Y-40639285D01*
X39209523Y-40734523D01*
X39019047Y-40782142D01*
X38685714Y-40782142D01*
X38495238Y-40734523D01*
X38400000Y-40639285D01*
X38352380Y-40544047D01*
X40952380Y-43305952D02*
X39952380Y-43305952D01*
X40666666Y-42972619D01*
X39952380Y-42639285D01*
X40952380Y-42639285D01*
X39952380Y-41972619D02*
X39952380Y-41782142D01*
X40000000Y-41686904D01*
X40095238Y-41591666D01*
X40285714Y-41544047D01*
X40619047Y-41544047D01*
X40809523Y-41591666D01*
X40904761Y-41686904D01*
X40952380Y-41782142D01*
X40952380Y-41972619D01*
X40904761Y-42067857D01*
X40809523Y-42163095D01*
X40619047Y-42210714D01*
X40285714Y-42210714D01*
X40095238Y-42163095D01*
X40000000Y-42067857D01*
X39952380Y-41972619D01*
X40904761Y-41163095D02*
X40952380Y-41020238D01*
X40952380Y-40782142D01*
X40904761Y-40686904D01*
X40857142Y-40639285D01*
X40761904Y-40591666D01*
X40666666Y-40591666D01*
X40571428Y-40639285D01*
X40523809Y-40686904D01*
X40476190Y-40782142D01*
X40428571Y-40972619D01*
X40380952Y-41067857D01*
X40333333Y-41115476D01*
X40238095Y-41163095D01*
X40142857Y-41163095D01*
X40047619Y-41115476D01*
X40000000Y-41067857D01*
X39952380Y-40972619D01*
X39952380Y-40734523D01*
X40000000Y-40591666D01*
X40952380Y-40163095D02*
X39952380Y-40163095D01*
X42457142Y-41067857D02*
X42504761Y-41115476D01*
X42552380Y-41258333D01*
X42552380Y-41353571D01*
X42504761Y-41496428D01*
X42409523Y-41591666D01*
X42314285Y-41639285D01*
X42123809Y-41686904D01*
X41980952Y-41686904D01*
X41790476Y-41639285D01*
X41695238Y-41591666D01*
X41600000Y-41496428D01*
X41552380Y-41353571D01*
X41552380Y-41258333D01*
X41600000Y-41115476D01*
X41647619Y-41067857D01*
X42504761Y-40686904D02*
X42552380Y-40544047D01*
X42552380Y-40305952D01*
X42504761Y-40210714D01*
X42457142Y-40163095D01*
X42361904Y-40115476D01*
X42266666Y-40115476D01*
X42171428Y-40163095D01*
X42123809Y-40210714D01*
X42076190Y-40305952D01*
X42028571Y-40496428D01*
X41980952Y-40591666D01*
X41933333Y-40639285D01*
X41838095Y-40686904D01*
X41742857Y-40686904D01*
X41647619Y-40639285D01*
X41600000Y-40591666D01*
X41552380Y-40496428D01*
X41552380Y-40258333D01*
X41600000Y-40115476D01*
X53401666Y-47598690D02*
X52935000Y-46860595D01*
X52601666Y-47598690D02*
X52601666Y-46048690D01*
X53135000Y-46048690D01*
X53268333Y-46122500D01*
X53335000Y-46196309D01*
X53401666Y-46343928D01*
X53401666Y-46565357D01*
X53335000Y-46712976D01*
X53268333Y-46786785D01*
X53135000Y-46860595D01*
X52601666Y-46860595D01*
X53868333Y-46048690D02*
X54801666Y-47598690D01*
X54801666Y-46048690D02*
X53868333Y-47598690D01*
X56068333Y-47598690D02*
X55268333Y-47598690D01*
X55668333Y-47598690D02*
X55668333Y-46048690D01*
X55535000Y-46270119D01*
X55401666Y-46417738D01*
X55268333Y-46491547D01*
X52735000Y-48473690D02*
X53535000Y-48473690D01*
X53135000Y-50023690D02*
X53135000Y-48473690D01*
X53868333Y-48473690D02*
X54801666Y-50023690D01*
X54801666Y-48473690D02*
X53868333Y-50023690D01*
X56068333Y-50023690D02*
X55268333Y-50023690D01*
X55668333Y-50023690D02*
X55668333Y-48473690D01*
X55535000Y-48695119D01*
X55401666Y-48842738D01*
X55268333Y-48916547D01*
X51401666Y-52374880D02*
X51601666Y-52448690D01*
X51935000Y-52448690D01*
X52068333Y-52374880D01*
X52135000Y-52301071D01*
X52201666Y-52153452D01*
X52201666Y-52005833D01*
X52135000Y-51858214D01*
X52068333Y-51784404D01*
X51935000Y-51710595D01*
X51668333Y-51636785D01*
X51535000Y-51562976D01*
X51468333Y-51489166D01*
X51401666Y-51341547D01*
X51401666Y-51193928D01*
X51468333Y-51046309D01*
X51535000Y-50972500D01*
X51668333Y-50898690D01*
X52001666Y-50898690D01*
X52201666Y-50972500D01*
X53601666Y-52301071D02*
X53535000Y-52374880D01*
X53335000Y-52448690D01*
X53201666Y-52448690D01*
X53001666Y-52374880D01*
X52868333Y-52227261D01*
X52801666Y-52079642D01*
X52735000Y-51784404D01*
X52735000Y-51562976D01*
X52801666Y-51267738D01*
X52868333Y-51120119D01*
X53001666Y-50972500D01*
X53201666Y-50898690D01*
X53335000Y-50898690D01*
X53535000Y-50972500D01*
X53601666Y-51046309D01*
X54868333Y-52448690D02*
X54201666Y-52448690D01*
X54201666Y-50898690D01*
X55601666Y-50898690D02*
X55735000Y-50898690D01*
X55868333Y-50972500D01*
X55935000Y-51046309D01*
X56001666Y-51193928D01*
X56068333Y-51489166D01*
X56068333Y-51858214D01*
X56001666Y-52153452D01*
X55935000Y-52301071D01*
X55868333Y-52374880D01*
X55735000Y-52448690D01*
X55601666Y-52448690D01*
X55468333Y-52374880D01*
X55401666Y-52301071D01*
X55335000Y-52153452D01*
X55268333Y-51858214D01*
X55268333Y-51489166D01*
X55335000Y-51193928D01*
X55401666Y-51046309D01*
X55468333Y-50972500D01*
X55601666Y-50898690D01*
X51335000Y-54799880D02*
X51535000Y-54873690D01*
X51868333Y-54873690D01*
X52001666Y-54799880D01*
X52068333Y-54726071D01*
X52135000Y-54578452D01*
X52135000Y-54430833D01*
X52068333Y-54283214D01*
X52001666Y-54209404D01*
X51868333Y-54135595D01*
X51601666Y-54061785D01*
X51468333Y-53987976D01*
X51401666Y-53914166D01*
X51335000Y-53766547D01*
X51335000Y-53618928D01*
X51401666Y-53471309D01*
X51468333Y-53397500D01*
X51601666Y-53323690D01*
X51935000Y-53323690D01*
X52135000Y-53397500D01*
X52735000Y-54873690D02*
X52735000Y-53323690D01*
X53068333Y-53323690D01*
X53268333Y-53397500D01*
X53401666Y-53545119D01*
X53468333Y-53692738D01*
X53535000Y-53987976D01*
X53535000Y-54209404D01*
X53468333Y-54504642D01*
X53401666Y-54652261D01*
X53268333Y-54799880D01*
X53068333Y-54873690D01*
X52735000Y-54873690D01*
X54068333Y-54430833D02*
X54735000Y-54430833D01*
X53935000Y-54873690D02*
X54401666Y-53323690D01*
X54868333Y-54873690D01*
X55601666Y-53323690D02*
X55735000Y-53323690D01*
X55868333Y-53397500D01*
X55935000Y-53471309D01*
X56001666Y-53618928D01*
X56068333Y-53914166D01*
X56068333Y-54283214D01*
X56001666Y-54578452D01*
X55935000Y-54726071D01*
X55868333Y-54799880D01*
X55735000Y-54873690D01*
X55601666Y-54873690D01*
X55468333Y-54799880D01*
X55401666Y-54726071D01*
X55335000Y-54578452D01*
X55268333Y-54283214D01*
X55268333Y-53914166D01*
X55335000Y-53618928D01*
X55401666Y-53471309D01*
X55468333Y-53397500D01*
X55601666Y-53323690D01*
X51335000Y-57224880D02*
X51535000Y-57298690D01*
X51868333Y-57298690D01*
X52001666Y-57224880D01*
X52068333Y-57151071D01*
X52135000Y-57003452D01*
X52135000Y-56855833D01*
X52068333Y-56708214D01*
X52001666Y-56634404D01*
X51868333Y-56560595D01*
X51601666Y-56486785D01*
X51468333Y-56412976D01*
X51401666Y-56339166D01*
X51335000Y-56191547D01*
X51335000Y-56043928D01*
X51401666Y-55896309D01*
X51468333Y-55822500D01*
X51601666Y-55748690D01*
X51935000Y-55748690D01*
X52135000Y-55822500D01*
X52735000Y-57298690D02*
X52735000Y-55748690D01*
X53068333Y-55748690D01*
X53268333Y-55822500D01*
X53401666Y-55970119D01*
X53468333Y-56117738D01*
X53535000Y-56412976D01*
X53535000Y-56634404D01*
X53468333Y-56929642D01*
X53401666Y-57077261D01*
X53268333Y-57224880D01*
X53068333Y-57298690D01*
X52735000Y-57298690D01*
X54068333Y-56855833D02*
X54735000Y-56855833D01*
X53935000Y-57298690D02*
X54401666Y-55748690D01*
X54868333Y-57298690D01*
X56068333Y-57298690D02*
X55268333Y-57298690D01*
X55668333Y-57298690D02*
X55668333Y-55748690D01*
X55535000Y-55970119D01*
X55401666Y-56117738D01*
X55268333Y-56191547D01*
X51401666Y-59649880D02*
X51601666Y-59723690D01*
X51935000Y-59723690D01*
X52068333Y-59649880D01*
X52135000Y-59576071D01*
X52201666Y-59428452D01*
X52201666Y-59280833D01*
X52135000Y-59133214D01*
X52068333Y-59059404D01*
X51935000Y-58985595D01*
X51668333Y-58911785D01*
X51535000Y-58837976D01*
X51468333Y-58764166D01*
X51401666Y-58616547D01*
X51401666Y-58468928D01*
X51468333Y-58321309D01*
X51535000Y-58247500D01*
X51668333Y-58173690D01*
X52001666Y-58173690D01*
X52201666Y-58247500D01*
X53601666Y-59576071D02*
X53535000Y-59649880D01*
X53335000Y-59723690D01*
X53201666Y-59723690D01*
X53001666Y-59649880D01*
X52868333Y-59502261D01*
X52801666Y-59354642D01*
X52735000Y-59059404D01*
X52735000Y-58837976D01*
X52801666Y-58542738D01*
X52868333Y-58395119D01*
X53001666Y-58247500D01*
X53201666Y-58173690D01*
X53335000Y-58173690D01*
X53535000Y-58247500D01*
X53601666Y-58321309D01*
X54868333Y-59723690D02*
X54201666Y-59723690D01*
X54201666Y-58173690D01*
X56068333Y-59723690D02*
X55268333Y-59723690D01*
X55668333Y-59723690D02*
X55668333Y-58173690D01*
X55535000Y-58395119D01*
X55401666Y-58542738D01*
X55268333Y-58616547D01*
X22000000Y-48100000D02*
X14900000Y-48100000D01*
X22000000Y-56900000D02*
X14900000Y-56900000D01*
X14900000Y-56900000D02*
X14900000Y-48100000D01*
X22000000Y-48100000D02*
X22000000Y-56900000D01*
X16000000Y-56700000D02*
X16000000Y-48300000D01*
D12*
X21520000Y-52500000D02*
X15200000Y-52500000D01*
D11*
X26810000Y-59120000D02*
X25700000Y-59120000D01*
X26810000Y-58360000D02*
X26810000Y-59120000D01*
X25136529Y-57600000D02*
X24590000Y-57600000D01*
X26810000Y-57600000D02*
X26263471Y-57600000D01*
X24590000Y-57600000D02*
X24590000Y-55125000D01*
X26810000Y-57600000D02*
X26810000Y-55125000D01*
X25392470Y-55125000D02*
X24590000Y-55125000D01*
X26810000Y-55125000D02*
X26007530Y-55125000D01*
D13*
X36940501Y-47396000D02*
X36559501Y-47396000D01*
X36940501Y-47142000D02*
X36940501Y-47396000D01*
X36559501Y-47142000D02*
X36940501Y-47142000D01*
X36559501Y-47396000D02*
X36559501Y-47142000D01*
X41940501Y-47396000D02*
X41559501Y-47396000D01*
X41940501Y-47142000D02*
X41940501Y-47396000D01*
X41559501Y-47142000D02*
X41940501Y-47142000D01*
X41559501Y-47396000D02*
X41559501Y-47142000D01*
X45104000Y-54059499D02*
X45358000Y-54059499D01*
X45104000Y-54440500D02*
X45104000Y-54059499D01*
X45358000Y-54440500D02*
X45104000Y-54440500D01*
X45358000Y-54059499D02*
X45358000Y-54440500D01*
X41440500Y-60604000D02*
X41059500Y-60604000D01*
X41440500Y-60858000D02*
X41440500Y-60604000D01*
X41059500Y-60858000D02*
X41440500Y-60858000D01*
X41059500Y-60604000D02*
X41059500Y-60858000D01*
X36440499Y-60604000D02*
X36059499Y-60604000D01*
X36440499Y-60858000D02*
X36440499Y-60604000D01*
X36059499Y-60858000D02*
X36440499Y-60858000D01*
X36059499Y-60604000D02*
X36059499Y-60858000D01*
X31896000Y-54559501D02*
X31642000Y-54559501D01*
X31896000Y-54940501D02*
X31896000Y-54559501D01*
X31642000Y-54940501D02*
X31896000Y-54940501D01*
X31642000Y-54559501D02*
X31642000Y-54940501D01*
X34302960Y-48869200D02*
X33369200Y-48869200D01*
X43630800Y-49802960D02*
X43630800Y-48869200D01*
X42697040Y-59130800D02*
X43630800Y-59130800D01*
X33369200Y-58197040D02*
X33369200Y-59130800D01*
X33369200Y-48869200D02*
X33369200Y-49802960D01*
X43630800Y-48869200D02*
X42697040Y-48869200D01*
X43630800Y-59130800D02*
X43630800Y-58197040D01*
X33369200Y-59130800D02*
X34302960Y-59130800D01*
D11*
X35270000Y-39440000D02*
X35270000Y-38110000D01*
X36600000Y-39440000D02*
X35270000Y-39440000D01*
X37870000Y-39440000D02*
X37870000Y-36780000D01*
X37870000Y-36780000D02*
X43010000Y-36780000D01*
X37870000Y-39440000D02*
X43010000Y-39440000D01*
X43010000Y-39440000D02*
X43010000Y-36780000D01*
X56170000Y-40210000D02*
X57500000Y-40210000D01*
X56170000Y-41540000D02*
X56170000Y-40210000D01*
X56170000Y-42810000D02*
X58830000Y-42810000D01*
X58830000Y-42810000D02*
X58830000Y-60650000D01*
X56170000Y-42810000D02*
X56170000Y-60650000D01*
X56170000Y-60650000D02*
X58830000Y-60650000D01*
X53120000Y-61517221D02*
X53120000Y-61842779D01*
X54140000Y-61517221D02*
X54140000Y-61842779D01*
X47637221Y-66050000D02*
X47962779Y-66050000D01*
X47637221Y-65030000D02*
X47962779Y-65030000D01*
X48090000Y-63880000D02*
X48090000Y-64120000D01*
X49890000Y-63880000D02*
X48090000Y-63880000D01*
X48090000Y-60280000D02*
X49890000Y-60280000D01*
X51690000Y-61680000D02*
X51690000Y-62480000D01*
X46290000Y-62480000D02*
X46290000Y-61680000D01*
X45890000Y-62480000D02*
X46290000Y-62480000D01*
D14*
X37025000Y-67245000D02*
X37525000Y-67245000D01*
X37025000Y-63995000D02*
X37525000Y-63995000D01*
X40275000Y-63995000D02*
X39775000Y-63995000D01*
X40275000Y-67245000D02*
X39775000Y-67245000D01*
X37025000Y-63995000D02*
X37025000Y-64495000D01*
X40275000Y-63995000D02*
X40275000Y-64495000D01*
X37025000Y-67245000D02*
X37025000Y-66745000D01*
D11*
X31710000Y-39130000D02*
X31710000Y-45140000D01*
X24890000Y-41380000D02*
X24890000Y-45140000D01*
X31710000Y-45140000D02*
X30450000Y-45140000D01*
X24890000Y-45140000D02*
X26150000Y-45140000D01*
X26700000Y-62510000D02*
X20000000Y-62510000D01*
X20000000Y-68710000D02*
X26700000Y-68710000D01*
X20000000Y-66810000D02*
X20000000Y-64410000D01*
X26700000Y-66810000D02*
X26700000Y-64410000D01*
X26700000Y-68710000D02*
X26700000Y-68510000D01*
X26700000Y-62510000D02*
X26700000Y-62710000D01*
X20000000Y-62510000D02*
X20000000Y-62710000D01*
X20000000Y-68710000D02*
X20000000Y-68510000D01*
X52180000Y-39740000D02*
X45480000Y-39740000D01*
X45480000Y-45940000D02*
X52180000Y-45940000D01*
X45480000Y-44040000D02*
X45480000Y-41640000D01*
X52180000Y-44040000D02*
X52180000Y-41640000D01*
X52180000Y-45940000D02*
X52180000Y-45740000D01*
X52180000Y-39740000D02*
X52180000Y-39940000D01*
X45480000Y-39740000D02*
X45480000Y-39940000D01*
X45480000Y-45940000D02*
X45480000Y-45740000D01*
X37860000Y-42022779D02*
X37860000Y-41697221D01*
X36840000Y-42022779D02*
X36840000Y-41697221D01*
X19272779Y-59280000D02*
X18947221Y-59280000D01*
X19272779Y-60300000D02*
X18947221Y-60300000D01*
X29262779Y-56850000D02*
X28937221Y-56850000D01*
X29262779Y-57870000D02*
X28937221Y-57870000D01*
X26010000Y-53162779D02*
X26010000Y-52837221D01*
X24990000Y-53162779D02*
X24990000Y-52837221D01*
X28010000Y-52162779D02*
X28010000Y-51837221D01*
X26990000Y-52162779D02*
X26990000Y-51837221D01*
X23360000Y-59772779D02*
X23360000Y-59447221D01*
X22340000Y-59772779D02*
X22340000Y-59447221D01*
X24340000Y-49447221D02*
X24340000Y-49772779D01*
X25360000Y-49447221D02*
X25360000Y-49772779D01*
X28108578Y-59900000D02*
X27591422Y-59900000D01*
X28108578Y-61320000D02*
X27591422Y-61320000D01*
X31560000Y-63618578D02*
X31560000Y-63101422D01*
X30140000Y-63618578D02*
X30140000Y-63101422D01*
X36615000Y-43875000D02*
X36615000Y-46160000D01*
X38085000Y-43875000D02*
X36615000Y-43875000D01*
X38085000Y-46160000D02*
X38085000Y-43875000D01*
X34860000Y-63522779D02*
X34860000Y-63197221D01*
X33840000Y-63522779D02*
X33840000Y-63197221D01*
X28937221Y-59370000D02*
X29262779Y-59370000D01*
X28937221Y-58350000D02*
X29262779Y-58350000D01*
X32090000Y-63197221D02*
X32090000Y-63522779D01*
X33110000Y-63197221D02*
X33110000Y-63522779D01*
X30610000Y-49772779D02*
X30610000Y-49447221D01*
X29590000Y-49772779D02*
X29590000Y-49447221D01*
X34610000Y-45522779D02*
X34610000Y-45197221D01*
X33590000Y-45522779D02*
X33590000Y-45197221D01*
X41512779Y-61850000D02*
X41187221Y-61850000D01*
X41512779Y-62870000D02*
X41187221Y-62870000D01*
X48860000Y-50272779D02*
X48860000Y-49947221D01*
X47840000Y-50272779D02*
X47840000Y-49947221D01*
X33390000Y-41601422D02*
X33390000Y-42118578D01*
X34810000Y-41601422D02*
X34810000Y-42118578D01*
D10*
X20011904Y-53090476D02*
X19211904Y-53090476D01*
X19211904Y-52785714D01*
X19250000Y-52709523D01*
X19288095Y-52671428D01*
X19364285Y-52633333D01*
X19478571Y-52633333D01*
X19554761Y-52671428D01*
X19592857Y-52709523D01*
X19630952Y-52785714D01*
X19630952Y-53090476D01*
X20011904Y-51871428D02*
X20011904Y-52328571D01*
X20011904Y-52100000D02*
X19211904Y-52100000D01*
X19326190Y-52176190D01*
X19402380Y-52252380D01*
X19440476Y-52328571D01*
X23716666Y-58176666D02*
X24283333Y-58176666D01*
X24350000Y-58143333D01*
X24383333Y-58110000D01*
X24416666Y-58043333D01*
X24416666Y-57910000D01*
X24383333Y-57843333D01*
X24350000Y-57810000D01*
X24283333Y-57776666D01*
X23716666Y-57776666D01*
X24383333Y-57476666D02*
X24416666Y-57376666D01*
X24416666Y-57210000D01*
X24383333Y-57143333D01*
X24350000Y-57110000D01*
X24283333Y-57076666D01*
X24216666Y-57076666D01*
X24150000Y-57110000D01*
X24116666Y-57143333D01*
X24083333Y-57210000D01*
X24050000Y-57343333D01*
X24016666Y-57410000D01*
X23983333Y-57443333D01*
X23916666Y-57476666D01*
X23850000Y-57476666D01*
X23783333Y-57443333D01*
X23750000Y-57410000D01*
X23716666Y-57343333D01*
X23716666Y-57176666D01*
X23750000Y-57076666D01*
X24050000Y-56543333D02*
X24083333Y-56443333D01*
X24116666Y-56410000D01*
X24183333Y-56376666D01*
X24283333Y-56376666D01*
X24350000Y-56410000D01*
X24383333Y-56443333D01*
X24416666Y-56510000D01*
X24416666Y-56776666D01*
X23716666Y-56776666D01*
X23716666Y-56543333D01*
X23750000Y-56476666D01*
X23783333Y-56443333D01*
X23850000Y-56410000D01*
X23916666Y-56410000D01*
X23983333Y-56443333D01*
X24016666Y-56476666D01*
X24050000Y-56543333D01*
X24050000Y-56776666D01*
X23783333Y-56110000D02*
X23750000Y-56076666D01*
X23716666Y-56010000D01*
X23716666Y-55843333D01*
X23750000Y-55776666D01*
X23783333Y-55743333D01*
X23850000Y-55710000D01*
X23916666Y-55710000D01*
X24016666Y-55743333D01*
X24416666Y-56143333D01*
X24416666Y-55710000D01*
X38359221Y-55281218D02*
X38817157Y-55739154D01*
X38897969Y-55766091D01*
X38951844Y-55766091D01*
X39032656Y-55739154D01*
X39140406Y-55631404D01*
X39167343Y-55550592D01*
X39167343Y-55496717D01*
X39140406Y-55415905D01*
X38682470Y-54957969D01*
X38978781Y-54769407D02*
X38978781Y-54715532D01*
X39005719Y-54634720D01*
X39140406Y-54500033D01*
X39221218Y-54473096D01*
X39275093Y-54473096D01*
X39355905Y-54500033D01*
X39409780Y-54553908D01*
X39463654Y-54661658D01*
X39463654Y-55308155D01*
X39813841Y-54957969D01*
X35348324Y-57723486D02*
X34782638Y-57157801D01*
X35375261Y-57373300D01*
X35159762Y-56780677D01*
X35725447Y-57346362D01*
X35994821Y-57076988D02*
X35429136Y-56511303D01*
X36318070Y-56753740D02*
X35752385Y-56672927D01*
X35752385Y-56188054D02*
X35752385Y-56834552D01*
X36021759Y-56026430D02*
X36021759Y-55972555D01*
X36048696Y-55891743D01*
X36183383Y-55757056D01*
X36264195Y-55730118D01*
X36318070Y-55730118D01*
X36398882Y-55757056D01*
X36452757Y-55810931D01*
X36506632Y-55918680D01*
X36506632Y-56565178D01*
X36856818Y-56214992D01*
X36641319Y-55299120D02*
X36695194Y-55245245D01*
X36776006Y-55218308D01*
X36829881Y-55218308D01*
X36910693Y-55245245D01*
X37045380Y-55326057D01*
X37180067Y-55460744D01*
X37260879Y-55595431D01*
X37287816Y-55676244D01*
X37287816Y-55730118D01*
X37260879Y-55810931D01*
X37207004Y-55864805D01*
X37126192Y-55891743D01*
X37072317Y-55891743D01*
X36991505Y-55864805D01*
X36856818Y-55783993D01*
X36722131Y-55649306D01*
X36641319Y-55514619D01*
X36614381Y-55433807D01*
X36614381Y-55379932D01*
X36641319Y-55299120D01*
X37638003Y-55433807D02*
X37072317Y-54868122D01*
X37207004Y-54733435D01*
X37314754Y-54679560D01*
X37422503Y-54679560D01*
X37503316Y-54706497D01*
X37638003Y-54787309D01*
X37718815Y-54868122D01*
X37799627Y-55002809D01*
X37826564Y-55083621D01*
X37826564Y-55191370D01*
X37772690Y-55299120D01*
X37638003Y-55433807D01*
X37584128Y-54356311D02*
X38526937Y-54544873D01*
X37961251Y-53979187D02*
X38149813Y-54921996D01*
X38203688Y-53844500D02*
X38203688Y-53790625D01*
X38230625Y-53709813D01*
X38365312Y-53575126D01*
X38446125Y-53548189D01*
X38500000Y-53548189D01*
X38580812Y-53575126D01*
X38634687Y-53629001D01*
X38688561Y-53736751D01*
X38688561Y-54383248D01*
X39038748Y-54033062D01*
X38984873Y-52955566D02*
X38715499Y-53224940D01*
X38957935Y-53521251D01*
X38957935Y-53467377D01*
X38984873Y-53386564D01*
X39119560Y-53251877D01*
X39200372Y-53224940D01*
X39254247Y-53224940D01*
X39335059Y-53251877D01*
X39469746Y-53386564D01*
X39496683Y-53467377D01*
X39496683Y-53521251D01*
X39469746Y-53602064D01*
X39335059Y-53736751D01*
X39254247Y-53763688D01*
X39200372Y-53763688D01*
X39496683Y-52443755D02*
X39388934Y-52551505D01*
X39361996Y-52632317D01*
X39361996Y-52686192D01*
X39388934Y-52820879D01*
X39469746Y-52955566D01*
X39685245Y-53171065D01*
X39766057Y-53198003D01*
X39819932Y-53198003D01*
X39900744Y-53171065D01*
X40008494Y-53063316D01*
X40035431Y-52982503D01*
X40035431Y-52928629D01*
X40008494Y-52847816D01*
X39873807Y-52713129D01*
X39792995Y-52686192D01*
X39739120Y-52686192D01*
X39658308Y-52713129D01*
X39550558Y-52820879D01*
X39523621Y-52901691D01*
X39523621Y-52955566D01*
X39550558Y-53036378D01*
X39712183Y-52228256D02*
X40466430Y-52605380D01*
X40089306Y-51851133D01*
X41112927Y-51958882D02*
X40843553Y-52228256D01*
X40277868Y-51662571D01*
X41301489Y-51770320D02*
X40735804Y-51204635D01*
X41005178Y-51474009D02*
X41328427Y-51150760D01*
X41624738Y-51447072D02*
X41059053Y-50881386D01*
X41274552Y-50665887D02*
X41651675Y-50288763D01*
X41974924Y-51096885D01*
D14*
X31515000Y-49071380D02*
X31515000Y-49309476D01*
X31276904Y-49214238D02*
X31515000Y-49309476D01*
X31753095Y-49214238D01*
X31372142Y-49499952D02*
X31515000Y-49309476D01*
X31657857Y-49499952D01*
X31515000Y-49071380D02*
X31515000Y-49309476D01*
X31276904Y-49214238D02*
X31515000Y-49309476D01*
X31753095Y-49214238D01*
X31372142Y-49499952D02*
X31515000Y-49309476D01*
X31657857Y-49499952D01*
X33722380Y-38443333D02*
X34436666Y-38443333D01*
X34579523Y-38490952D01*
X34674761Y-38586190D01*
X34722380Y-38729047D01*
X34722380Y-38824285D01*
X33722380Y-38062380D02*
X33722380Y-37443333D01*
X34103333Y-37776666D01*
X34103333Y-37633809D01*
X34150952Y-37538571D01*
X34198571Y-37490952D01*
X34293809Y-37443333D01*
X34531904Y-37443333D01*
X34627142Y-37490952D01*
X34674761Y-37538571D01*
X34722380Y-37633809D01*
X34722380Y-37919523D01*
X34674761Y-38014761D01*
X34627142Y-38062380D01*
X57166666Y-38662380D02*
X57166666Y-39376666D01*
X57119047Y-39519523D01*
X57023809Y-39614761D01*
X56880952Y-39662380D01*
X56785714Y-39662380D01*
X57595238Y-38757619D02*
X57642857Y-38710000D01*
X57738095Y-38662380D01*
X57976190Y-38662380D01*
X58071428Y-38710000D01*
X58119047Y-38757619D01*
X58166666Y-38852857D01*
X58166666Y-38948095D01*
X58119047Y-39090952D01*
X57547619Y-39662380D01*
X58166666Y-39662380D01*
X53447142Y-65402857D02*
X53494761Y-65450476D01*
X53542380Y-65593333D01*
X53542380Y-65688571D01*
X53494761Y-65831428D01*
X53399523Y-65926666D01*
X53304285Y-65974285D01*
X53113809Y-66021904D01*
X52970952Y-66021904D01*
X52780476Y-65974285D01*
X52685238Y-65926666D01*
X52590000Y-65831428D01*
X52542380Y-65688571D01*
X52542380Y-65593333D01*
X52590000Y-65450476D01*
X52637619Y-65402857D01*
X53542380Y-64450476D02*
X53542380Y-65021904D01*
X53542380Y-64736190D02*
X52542380Y-64736190D01*
X52685238Y-64831428D01*
X52780476Y-64926666D01*
X52828095Y-65021904D01*
X52542380Y-63831428D02*
X52542380Y-63736190D01*
X52590000Y-63640952D01*
X52637619Y-63593333D01*
X52732857Y-63545714D01*
X52923333Y-63498095D01*
X53161428Y-63498095D01*
X53351904Y-63545714D01*
X53447142Y-63593333D01*
X53494761Y-63640952D01*
X53542380Y-63736190D01*
X53542380Y-63831428D01*
X53494761Y-63926666D01*
X53447142Y-63974285D01*
X53351904Y-64021904D01*
X53161428Y-64069523D01*
X52923333Y-64069523D01*
X52732857Y-64021904D01*
X52637619Y-63974285D01*
X52590000Y-63926666D01*
X52542380Y-63831428D01*
X47593333Y-67597142D02*
X47545714Y-67644761D01*
X47402857Y-67692380D01*
X47307619Y-67692380D01*
X47164761Y-67644761D01*
X47069523Y-67549523D01*
X47021904Y-67454285D01*
X46974285Y-67263809D01*
X46974285Y-67120952D01*
X47021904Y-66930476D01*
X47069523Y-66835238D01*
X47164761Y-66740000D01*
X47307619Y-66692380D01*
X47402857Y-66692380D01*
X47545714Y-66740000D01*
X47593333Y-66787619D01*
X48069523Y-67692380D02*
X48260000Y-67692380D01*
X48355238Y-67644761D01*
X48402857Y-67597142D01*
X48498095Y-67454285D01*
X48545714Y-67263809D01*
X48545714Y-66882857D01*
X48498095Y-66787619D01*
X48450476Y-66740000D01*
X48355238Y-66692380D01*
X48164761Y-66692380D01*
X48069523Y-66740000D01*
X48021904Y-66787619D01*
X47974285Y-66882857D01*
X47974285Y-67120952D01*
X48021904Y-67216190D01*
X48069523Y-67263809D01*
X48164761Y-67311428D01*
X48355238Y-67311428D01*
X48450476Y-67263809D01*
X48498095Y-67216190D01*
X48545714Y-67120952D01*
D10*
X48609047Y-59260952D02*
X48609047Y-59641904D01*
X48342380Y-58841904D02*
X48609047Y-59260952D01*
X48875714Y-58841904D01*
X49561428Y-59641904D02*
X49104285Y-59641904D01*
X49332857Y-59641904D02*
X49332857Y-58841904D01*
X49256666Y-58956190D01*
X49180476Y-59032380D01*
X49104285Y-59070476D01*
X38040476Y-68031904D02*
X38040476Y-68679523D01*
X38078571Y-68755714D01*
X38116666Y-68793809D01*
X38192857Y-68831904D01*
X38345238Y-68831904D01*
X38421428Y-68793809D01*
X38459523Y-68755714D01*
X38497619Y-68679523D01*
X38497619Y-68031904D01*
X38802380Y-68031904D02*
X39297619Y-68031904D01*
X39030952Y-68336666D01*
X39145238Y-68336666D01*
X39221428Y-68374761D01*
X39259523Y-68412857D01*
X39297619Y-68489047D01*
X39297619Y-68679523D01*
X39259523Y-68755714D01*
X39221428Y-68793809D01*
X39145238Y-68831904D01*
X38916666Y-68831904D01*
X38840476Y-68793809D01*
X38802380Y-68755714D01*
X27911904Y-43839523D02*
X28559523Y-43839523D01*
X28635714Y-43801428D01*
X28673809Y-43763333D01*
X28711904Y-43687142D01*
X28711904Y-43534761D01*
X28673809Y-43458571D01*
X28635714Y-43420476D01*
X28559523Y-43382380D01*
X27911904Y-43382380D01*
X28711904Y-42582380D02*
X28711904Y-43039523D01*
X28711904Y-42810952D02*
X27911904Y-42810952D01*
X28026190Y-42887142D01*
X28102380Y-42963333D01*
X28140476Y-43039523D01*
X17464285Y-66810000D02*
X17507142Y-66681428D01*
X17507142Y-66467142D01*
X17464285Y-66381428D01*
X17421428Y-66338571D01*
X17335714Y-66295714D01*
X17250000Y-66295714D01*
X17164285Y-66338571D01*
X17121428Y-66381428D01*
X17078571Y-66467142D01*
X17035714Y-66638571D01*
X16992857Y-66724285D01*
X16950000Y-66767142D01*
X16864285Y-66810000D01*
X16778571Y-66810000D01*
X16692857Y-66767142D01*
X16650000Y-66724285D01*
X16607142Y-66638571D01*
X16607142Y-66424285D01*
X16650000Y-66295714D01*
X16607142Y-65995714D02*
X17507142Y-65781428D01*
X16864285Y-65610000D01*
X17507142Y-65438571D01*
X16607142Y-65224285D01*
X16692857Y-64924285D02*
X16650000Y-64881428D01*
X16607142Y-64795714D01*
X16607142Y-64581428D01*
X16650000Y-64495714D01*
X16692857Y-64452857D01*
X16778571Y-64410000D01*
X16864285Y-64410000D01*
X16992857Y-64452857D01*
X17507142Y-64967142D01*
X17507142Y-64410000D01*
X47633333Y-38783809D02*
X47747619Y-38821904D01*
X47938095Y-38821904D01*
X48014285Y-38783809D01*
X48052380Y-38745714D01*
X48090476Y-38669523D01*
X48090476Y-38593333D01*
X48052380Y-38517142D01*
X48014285Y-38479047D01*
X47938095Y-38440952D01*
X47785714Y-38402857D01*
X47709523Y-38364761D01*
X47671428Y-38326666D01*
X47633333Y-38250476D01*
X47633333Y-38174285D01*
X47671428Y-38098095D01*
X47709523Y-38060000D01*
X47785714Y-38021904D01*
X47976190Y-38021904D01*
X48090476Y-38060000D01*
X48357142Y-38021904D02*
X48547619Y-38821904D01*
X48700000Y-38250476D01*
X48852380Y-38821904D01*
X49042857Y-38021904D01*
X49766666Y-38821904D02*
X49309523Y-38821904D01*
X49538095Y-38821904D02*
X49538095Y-38021904D01*
X49461904Y-38136190D01*
X49385714Y-38212380D01*
X49309523Y-38250476D01*
X36461904Y-41993333D02*
X36080952Y-42260000D01*
X36461904Y-42450476D02*
X35661904Y-42450476D01*
X35661904Y-42145714D01*
X35700000Y-42069523D01*
X35738095Y-42031428D01*
X35814285Y-41993333D01*
X35928571Y-41993333D01*
X36004761Y-42031428D01*
X36042857Y-42069523D01*
X36080952Y-42145714D01*
X36080952Y-42450476D01*
X35661904Y-41726666D02*
X35661904Y-41193333D01*
X36461904Y-41536190D01*
X18976666Y-61581904D02*
X18710000Y-61200952D01*
X18519523Y-61581904D02*
X18519523Y-60781904D01*
X18824285Y-60781904D01*
X18900476Y-60820000D01*
X18938571Y-60858095D01*
X18976666Y-60934285D01*
X18976666Y-61048571D01*
X18938571Y-61124761D01*
X18900476Y-61162857D01*
X18824285Y-61200952D01*
X18519523Y-61200952D01*
X19662380Y-60781904D02*
X19510000Y-60781904D01*
X19433809Y-60820000D01*
X19395714Y-60858095D01*
X19319523Y-60972380D01*
X19281428Y-61124761D01*
X19281428Y-61429523D01*
X19319523Y-61505714D01*
X19357619Y-61543809D01*
X19433809Y-61581904D01*
X19586190Y-61581904D01*
X19662380Y-61543809D01*
X19700476Y-61505714D01*
X19738571Y-61429523D01*
X19738571Y-61239047D01*
X19700476Y-61162857D01*
X19662380Y-61124761D01*
X19586190Y-61086666D01*
X19433809Y-61086666D01*
X19357619Y-61124761D01*
X19319523Y-61162857D01*
X19281428Y-61239047D01*
X31661904Y-57493333D02*
X31280952Y-57760000D01*
X31661904Y-57950476D02*
X30861904Y-57950476D01*
X30861904Y-57645714D01*
X30900000Y-57569523D01*
X30938095Y-57531428D01*
X31014285Y-57493333D01*
X31128571Y-57493333D01*
X31204761Y-57531428D01*
X31242857Y-57569523D01*
X31280952Y-57645714D01*
X31280952Y-57950476D01*
X30861904Y-56769523D02*
X30861904Y-57150476D01*
X31242857Y-57188571D01*
X31204761Y-57150476D01*
X31166666Y-57074285D01*
X31166666Y-56883809D01*
X31204761Y-56807619D01*
X31242857Y-56769523D01*
X31319047Y-56731428D01*
X31509523Y-56731428D01*
X31585714Y-56769523D01*
X31623809Y-56807619D01*
X31661904Y-56883809D01*
X31661904Y-57074285D01*
X31623809Y-57150476D01*
X31585714Y-57188571D01*
X24661904Y-53993333D02*
X24280952Y-54260000D01*
X24661904Y-54450476D02*
X23861904Y-54450476D01*
X23861904Y-54145714D01*
X23900000Y-54069523D01*
X23938095Y-54031428D01*
X24014285Y-53993333D01*
X24128571Y-53993333D01*
X24204761Y-54031428D01*
X24242857Y-54069523D01*
X24280952Y-54145714D01*
X24280952Y-54450476D01*
X24128571Y-53307619D02*
X24661904Y-53307619D01*
X23823809Y-53498095D02*
X24395238Y-53688571D01*
X24395238Y-53193333D01*
X27736904Y-49893333D02*
X27355952Y-50160000D01*
X27736904Y-50350476D02*
X26936904Y-50350476D01*
X26936904Y-50045714D01*
X26975000Y-49969523D01*
X27013095Y-49931428D01*
X27089285Y-49893333D01*
X27203571Y-49893333D01*
X27279761Y-49931428D01*
X27317857Y-49969523D01*
X27355952Y-50045714D01*
X27355952Y-50350476D01*
X26936904Y-49626666D02*
X26936904Y-49131428D01*
X27241666Y-49398095D01*
X27241666Y-49283809D01*
X27279761Y-49207619D01*
X27317857Y-49169523D01*
X27394047Y-49131428D01*
X27584523Y-49131428D01*
X27660714Y-49169523D01*
X27698809Y-49207619D01*
X27736904Y-49283809D01*
X27736904Y-49512380D01*
X27698809Y-49588571D01*
X27660714Y-49626666D01*
X21781904Y-59743333D02*
X21400952Y-60010000D01*
X21781904Y-60200476D02*
X20981904Y-60200476D01*
X20981904Y-59895714D01*
X21020000Y-59819523D01*
X21058095Y-59781428D01*
X21134285Y-59743333D01*
X21248571Y-59743333D01*
X21324761Y-59781428D01*
X21362857Y-59819523D01*
X21400952Y-59895714D01*
X21400952Y-60200476D01*
X21058095Y-59438571D02*
X21020000Y-59400476D01*
X20981904Y-59324285D01*
X20981904Y-59133809D01*
X21020000Y-59057619D01*
X21058095Y-59019523D01*
X21134285Y-58981428D01*
X21210476Y-58981428D01*
X21324761Y-59019523D01*
X21781904Y-59476666D01*
X21781904Y-58981428D01*
X26641904Y-49743333D02*
X26260952Y-50010000D01*
X26641904Y-50200476D02*
X25841904Y-50200476D01*
X25841904Y-49895714D01*
X25880000Y-49819523D01*
X25918095Y-49781428D01*
X25994285Y-49743333D01*
X26108571Y-49743333D01*
X26184761Y-49781428D01*
X26222857Y-49819523D01*
X26260952Y-49895714D01*
X26260952Y-50200476D01*
X26641904Y-48981428D02*
X26641904Y-49438571D01*
X26641904Y-49210000D02*
X25841904Y-49210000D01*
X25956190Y-49286190D01*
X26032380Y-49362380D01*
X26070476Y-49438571D01*
X24183333Y-60552857D02*
X23916666Y-60552857D01*
X23916666Y-60971904D02*
X23916666Y-60171904D01*
X24297619Y-60171904D01*
X24869047Y-60552857D02*
X24983333Y-60590952D01*
X25021428Y-60629047D01*
X25059523Y-60705238D01*
X25059523Y-60819523D01*
X25021428Y-60895714D01*
X24983333Y-60933809D01*
X24907142Y-60971904D01*
X24602380Y-60971904D01*
X24602380Y-60171904D01*
X24869047Y-60171904D01*
X24945238Y-60210000D01*
X24983333Y-60248095D01*
X25021428Y-60324285D01*
X25021428Y-60400476D01*
X24983333Y-60476666D01*
X24945238Y-60514761D01*
X24869047Y-60552857D01*
X24602380Y-60552857D01*
X25364285Y-60248095D02*
X25402380Y-60210000D01*
X25478571Y-60171904D01*
X25669047Y-60171904D01*
X25745238Y-60210000D01*
X25783333Y-60248095D01*
X25821428Y-60324285D01*
X25821428Y-60400476D01*
X25783333Y-60514761D01*
X25326190Y-60971904D01*
X25821428Y-60971904D01*
X30792857Y-67026666D02*
X30792857Y-67293333D01*
X31211904Y-67293333D02*
X30411904Y-67293333D01*
X30411904Y-66912380D01*
X30792857Y-66340952D02*
X30830952Y-66226666D01*
X30869047Y-66188571D01*
X30945238Y-66150476D01*
X31059523Y-66150476D01*
X31135714Y-66188571D01*
X31173809Y-66226666D01*
X31211904Y-66302857D01*
X31211904Y-66607619D01*
X30411904Y-66607619D01*
X30411904Y-66340952D01*
X30450000Y-66264761D01*
X30488095Y-66226666D01*
X30564285Y-66188571D01*
X30640476Y-66188571D01*
X30716666Y-66226666D01*
X30754761Y-66264761D01*
X30792857Y-66340952D01*
X30792857Y-66607619D01*
X31211904Y-65388571D02*
X31211904Y-65845714D01*
X31211904Y-65617142D02*
X30411904Y-65617142D01*
X30526190Y-65693333D01*
X30602380Y-65769523D01*
X30640476Y-65845714D01*
X36361904Y-45950476D02*
X35561904Y-45950476D01*
X35561904Y-45760000D01*
X35600000Y-45645714D01*
X35676190Y-45569523D01*
X35752380Y-45531428D01*
X35904761Y-45493333D01*
X36019047Y-45493333D01*
X36171428Y-45531428D01*
X36247619Y-45569523D01*
X36323809Y-45645714D01*
X36361904Y-45760000D01*
X36361904Y-45950476D01*
X36361904Y-44731428D02*
X36361904Y-45188571D01*
X36361904Y-44960000D02*
X35561904Y-44960000D01*
X35676190Y-45036190D01*
X35752380Y-45112380D01*
X35790476Y-45188571D01*
X34635714Y-65993333D02*
X34673809Y-66031428D01*
X34711904Y-66145714D01*
X34711904Y-66221904D01*
X34673809Y-66336190D01*
X34597619Y-66412380D01*
X34521428Y-66450476D01*
X34369047Y-66488571D01*
X34254761Y-66488571D01*
X34102380Y-66450476D01*
X34026190Y-66412380D01*
X33950000Y-66336190D01*
X33911904Y-66221904D01*
X33911904Y-66145714D01*
X33950000Y-66031428D01*
X33988095Y-65993333D01*
X34254761Y-65536190D02*
X34216666Y-65612380D01*
X34178571Y-65650476D01*
X34102380Y-65688571D01*
X34064285Y-65688571D01*
X33988095Y-65650476D01*
X33950000Y-65612380D01*
X33911904Y-65536190D01*
X33911904Y-65383809D01*
X33950000Y-65307619D01*
X33988095Y-65269523D01*
X34064285Y-65231428D01*
X34102380Y-65231428D01*
X34178571Y-65269523D01*
X34216666Y-65307619D01*
X34254761Y-65383809D01*
X34254761Y-65536190D01*
X34292857Y-65612380D01*
X34330952Y-65650476D01*
X34407142Y-65688571D01*
X34559523Y-65688571D01*
X34635714Y-65650476D01*
X34673809Y-65612380D01*
X34711904Y-65536190D01*
X34711904Y-65383809D01*
X34673809Y-65307619D01*
X34635714Y-65269523D01*
X34559523Y-65231428D01*
X34407142Y-65231428D01*
X34330952Y-65269523D01*
X34292857Y-65307619D01*
X34254761Y-65383809D01*
X31585714Y-59093333D02*
X31623809Y-59131428D01*
X31661904Y-59245714D01*
X31661904Y-59321904D01*
X31623809Y-59436190D01*
X31547619Y-59512380D01*
X31471428Y-59550476D01*
X31319047Y-59588571D01*
X31204761Y-59588571D01*
X31052380Y-59550476D01*
X30976190Y-59512380D01*
X30900000Y-59436190D01*
X30861904Y-59321904D01*
X30861904Y-59245714D01*
X30900000Y-59131428D01*
X30938095Y-59093333D01*
X30861904Y-58826666D02*
X30861904Y-58293333D01*
X31661904Y-58636190D01*
X32885714Y-65993333D02*
X32923809Y-66031428D01*
X32961904Y-66145714D01*
X32961904Y-66221904D01*
X32923809Y-66336190D01*
X32847619Y-66412380D01*
X32771428Y-66450476D01*
X32619047Y-66488571D01*
X32504761Y-66488571D01*
X32352380Y-66450476D01*
X32276190Y-66412380D01*
X32200000Y-66336190D01*
X32161904Y-66221904D01*
X32161904Y-66145714D01*
X32200000Y-66031428D01*
X32238095Y-65993333D01*
X32161904Y-65307619D02*
X32161904Y-65460000D01*
X32200000Y-65536190D01*
X32238095Y-65574285D01*
X32352380Y-65650476D01*
X32504761Y-65688571D01*
X32809523Y-65688571D01*
X32885714Y-65650476D01*
X32923809Y-65612380D01*
X32961904Y-65536190D01*
X32961904Y-65383809D01*
X32923809Y-65307619D01*
X32885714Y-65269523D01*
X32809523Y-65231428D01*
X32619047Y-65231428D01*
X32542857Y-65269523D01*
X32504761Y-65307619D01*
X32466666Y-65383809D01*
X32466666Y-65536190D01*
X32504761Y-65612380D01*
X32542857Y-65650476D01*
X32619047Y-65688571D01*
X28955714Y-49743333D02*
X28993809Y-49781428D01*
X29031904Y-49895714D01*
X29031904Y-49971904D01*
X28993809Y-50086190D01*
X28917619Y-50162380D01*
X28841428Y-50200476D01*
X28689047Y-50238571D01*
X28574761Y-50238571D01*
X28422380Y-50200476D01*
X28346190Y-50162380D01*
X28270000Y-50086190D01*
X28231904Y-49971904D01*
X28231904Y-49895714D01*
X28270000Y-49781428D01*
X28308095Y-49743333D01*
X28231904Y-49019523D02*
X28231904Y-49400476D01*
X28612857Y-49438571D01*
X28574761Y-49400476D01*
X28536666Y-49324285D01*
X28536666Y-49133809D01*
X28574761Y-49057619D01*
X28612857Y-49019523D01*
X28689047Y-48981428D01*
X28879523Y-48981428D01*
X28955714Y-49019523D01*
X28993809Y-49057619D01*
X29031904Y-49133809D01*
X29031904Y-49324285D01*
X28993809Y-49400476D01*
X28955714Y-49438571D01*
X33085714Y-45493333D02*
X33123809Y-45531428D01*
X33161904Y-45645714D01*
X33161904Y-45721904D01*
X33123809Y-45836190D01*
X33047619Y-45912380D01*
X32971428Y-45950476D01*
X32819047Y-45988571D01*
X32704761Y-45988571D01*
X32552380Y-45950476D01*
X32476190Y-45912380D01*
X32400000Y-45836190D01*
X32361904Y-45721904D01*
X32361904Y-45645714D01*
X32400000Y-45531428D01*
X32438095Y-45493333D01*
X32628571Y-44807619D02*
X33161904Y-44807619D01*
X32323809Y-44998095D02*
X32895238Y-45188571D01*
X32895238Y-44693333D01*
X41966666Y-64075714D02*
X41928571Y-64113809D01*
X41814285Y-64151904D01*
X41738095Y-64151904D01*
X41623809Y-64113809D01*
X41547619Y-64037619D01*
X41509523Y-63961428D01*
X41471428Y-63809047D01*
X41471428Y-63694761D01*
X41509523Y-63542380D01*
X41547619Y-63466190D01*
X41623809Y-63390000D01*
X41738095Y-63351904D01*
X41814285Y-63351904D01*
X41928571Y-63390000D01*
X41966666Y-63428095D01*
X42233333Y-63351904D02*
X42728571Y-63351904D01*
X42461904Y-63656666D01*
X42576190Y-63656666D01*
X42652380Y-63694761D01*
X42690476Y-63732857D01*
X42728571Y-63809047D01*
X42728571Y-63999523D01*
X42690476Y-64075714D01*
X42652380Y-64113809D01*
X42576190Y-64151904D01*
X42347619Y-64151904D01*
X42271428Y-64113809D01*
X42233333Y-64075714D01*
X47205714Y-50243333D02*
X47243809Y-50281428D01*
X47281904Y-50395714D01*
X47281904Y-50471904D01*
X47243809Y-50586190D01*
X47167619Y-50662380D01*
X47091428Y-50700476D01*
X46939047Y-50738571D01*
X46824761Y-50738571D01*
X46672380Y-50700476D01*
X46596190Y-50662380D01*
X46520000Y-50586190D01*
X46481904Y-50471904D01*
X46481904Y-50395714D01*
X46520000Y-50281428D01*
X46558095Y-50243333D01*
X46558095Y-49938571D02*
X46520000Y-49900476D01*
X46481904Y-49824285D01*
X46481904Y-49633809D01*
X46520000Y-49557619D01*
X46558095Y-49519523D01*
X46634285Y-49481428D01*
X46710476Y-49481428D01*
X46824761Y-49519523D01*
X47281904Y-49976666D01*
X47281904Y-49481428D01*
X32785714Y-41993333D02*
X32823809Y-42031428D01*
X32861904Y-42145714D01*
X32861904Y-42221904D01*
X32823809Y-42336190D01*
X32747619Y-42412380D01*
X32671428Y-42450476D01*
X32519047Y-42488571D01*
X32404761Y-42488571D01*
X32252380Y-42450476D01*
X32176190Y-42412380D01*
X32100000Y-42336190D01*
X32061904Y-42221904D01*
X32061904Y-42145714D01*
X32100000Y-42031428D01*
X32138095Y-41993333D01*
X32861904Y-41231428D02*
X32861904Y-41688571D01*
X32861904Y-41460000D02*
X32061904Y-41460000D01*
X32176190Y-41536190D01*
X32252380Y-41612380D01*
X32290476Y-41688571D01*
M02*
